<svg width="111" height="32" viewBox="0 0 111 32" fill="none" xmlns="http://www.w3.org/2000/svg">
<path d="M106.52 32H4.09691C1.84463 32 0 30.199 0 28V4.00013C0 1.80114 1.84463 0.000145778 4.09691 0.000145778H106.52C108.772 0.000145778 110.616 1.80114 110.616 4.00013V28C110.616 30.199 108.772 32 106.52 32Z" fill="#13244D"/>
<path d="M38.8509 8.19615C38.8509 8.86415 38.6461 9.39915 38.2425 9.79815C37.7785 10.2711 37.1742 10.5091 36.4337 10.5091C35.726 10.5091 35.1217 10.2671 34.626 9.79014C34.1292 9.30615 33.8813 8.71215 33.8813 8.00115C33.8813 7.29016 34.1292 6.69616 34.626 6.21616C35.1217 5.73516 35.726 5.49316 36.4337 5.49316C36.7861 5.49316 37.122 5.56416 37.4426 5.69616C37.7621 5.82916 38.0223 6.00916 38.2108 6.23116L37.7826 6.65316C37.4538 6.27416 37.0063 6.08716 36.4337 6.08716C35.9175 6.08716 35.4699 6.26316 35.0899 6.61816C34.714 6.97416 34.5256 7.43516 34.5256 8.00115C34.5256 8.56715 34.714 9.03215 35.0899 9.38815C35.4699 9.73914 35.9175 9.91914 36.4337 9.91914C36.9817 9.91914 37.4426 9.73914 37.8062 9.38415C38.0459 9.14915 38.1821 8.82515 38.2179 8.41115H36.4337V7.83315H38.814C38.8427 7.95815 38.8509 8.07915 38.8509 8.19615Z" fill="white" stroke="white" stroke-width="0.16" stroke-miterlimit="10"/>
<path d="M42.6272 6.19056H40.3913V7.71055H42.407V8.28855H40.3913V9.80854H42.6272V10.3975H39.7583V5.60156H42.6272V6.19056Z" fill="white" stroke="white" stroke-width="0.16" stroke-miterlimit="10"/>
<path d="M45.2925 10.3975H44.6595V6.19056H43.2881V5.60156H46.665V6.19056H45.2925V10.3975Z" fill="white" stroke="white" stroke-width="0.16" stroke-miterlimit="10"/>
<path d="M49.1094 10.3975V5.60156H49.7413V10.3975H49.1094Z" fill="white" stroke="white" stroke-width="0.16" stroke-miterlimit="10"/>
<path d="M52.5449 10.3975H51.9171V6.19056H50.5405V5.60156H53.9215V6.19056H52.5449V10.3975Z" fill="white" stroke="white" stroke-width="0.16" stroke-miterlimit="10"/>
<path d="M60.3143 9.78215C59.8298 10.2671 59.2296 10.5091 58.5137 10.5091C57.7936 10.5091 57.1935 10.2671 56.709 9.78215C56.2256 9.29815 55.9849 8.70415 55.9849 8.00115C55.9849 7.29816 56.2256 6.70416 56.709 6.22016C57.1935 5.73516 57.7936 5.49316 58.5137 5.49316C59.2255 5.49316 59.8257 5.73516 60.3102 6.22416C60.7977 6.71216 61.0384 7.30216 61.0384 8.00115C61.0384 8.70415 60.7977 9.29815 60.3143 9.78215ZM57.1771 9.38015C57.5417 9.73914 57.9852 9.91914 58.5137 9.91914C59.0381 9.91914 59.4857 9.73914 59.8462 9.38015C60.2098 9.02115 60.3942 8.56015 60.3942 8.00115C60.3942 7.44216 60.2098 6.98116 59.8462 6.62216C59.4857 6.26316 59.0381 6.08316 58.5137 6.08316C57.9852 6.08316 57.5417 6.26316 57.1771 6.62216C56.8135 6.98116 56.6291 7.44216 56.6291 8.00115C56.6291 8.56015 56.8135 9.02115 57.1771 9.38015Z" fill="white" stroke="white" stroke-width="0.16" stroke-miterlimit="10"/>
<path d="M61.9258 10.3975V5.60156H62.694L65.0824 9.33155H65.1101L65.0824 8.40955V5.60156H65.7144V10.3975H65.0548L62.5536 6.48356H62.526L62.5536 7.40955V10.3975H61.9258Z" fill="white" stroke="white" stroke-width="0.16" stroke-miterlimit="10"/>
<path d="M55.83 17.4027C53.9055 17.4027 52.3333 18.8327 52.3333 20.8057C52.3333 22.7627 53.9055 24.2077 55.83 24.2077C57.7587 24.2077 59.3308 22.7627 59.3308 20.8057C59.3308 18.8327 57.7587 17.4027 55.83 17.4027ZM55.83 22.8677C54.7741 22.8677 53.8656 22.0167 53.8656 20.8057C53.8656 19.5787 54.7741 18.7427 55.83 18.7427C56.886 18.7427 57.7986 19.5787 57.7986 20.8057C57.7986 22.0167 56.886 22.8677 55.83 22.8677ZM48.2006 17.4027C46.272 17.4027 44.7039 18.8327 44.7039 20.8057C44.7039 22.7627 46.272 24.2077 48.2006 24.2077C50.1282 24.2077 51.6973 22.7627 51.6973 20.8057C51.6973 18.8327 50.1282 17.4027 48.2006 17.4027ZM48.2006 22.8677C47.1436 22.8677 46.232 22.0167 46.232 20.8057C46.232 19.5787 47.1436 18.7427 48.2006 18.7427C49.2565 18.7427 50.165 19.5787 50.165 20.8057C50.165 22.0167 49.2565 22.8677 48.2006 22.8677ZM39.1218 18.4457V19.8917H42.6585C42.555 20.6997 42.2785 21.2937 41.8545 21.7077C41.3383 22.2077 40.5342 22.7627 39.1218 22.7627C36.9454 22.7627 35.241 21.0477 35.241 18.9227C35.241 16.7977 36.9454 15.0828 39.1218 15.0828C40.2987 15.0828 41.1549 15.5318 41.7869 16.1137L42.8306 15.0948C41.9467 14.2708 40.7708 13.6378 39.1218 13.6378C36.1372 13.6378 33.6289 16.0087 33.6289 18.9227C33.6289 21.8367 36.1372 24.2077 39.1218 24.2077C40.735 24.2077 41.9466 23.6917 42.8992 22.7237C43.8753 21.7707 44.1795 20.4307 44.1795 19.3487C44.1795 19.0127 44.1508 18.7037 44.0996 18.4457H39.1218ZM76.2459 19.5667C75.9581 18.8057 75.0701 17.4027 73.2613 17.4027C71.469 17.4027 69.9767 18.7817 69.9767 20.8057C69.9767 22.7117 71.4536 24.2077 73.4334 24.2077C75.0343 24.2077 75.9581 23.2547 76.3381 22.6997L75.15 21.9267C74.7536 22.4927 74.2139 22.8677 73.4334 22.8677C72.6581 22.8677 72.1019 22.5207 71.7455 21.8367L76.4067 19.9537L76.2459 19.5667ZM71.4935 20.6997C71.4536 19.3877 72.5372 18.7157 73.3136 18.7157C73.922 18.7157 74.4382 19.0127 74.6103 19.4377L71.4935 20.6997ZM67.7049 24.0007H69.2372V14.0008H67.7049V24.0007ZM65.1956 18.1607H65.1443C64.8002 17.7627 64.1437 17.4027 63.312 17.4027C61.5667 17.4027 59.971 18.8987 59.971 20.8167C59.971 22.7237 61.5667 24.2077 63.312 24.2077C64.1437 24.2077 64.8002 23.8447 65.1443 23.4347H65.1956V23.9227C65.1956 25.2237 64.4837 25.9227 63.3356 25.9227C62.3994 25.9227 61.8187 25.2627 61.579 24.7077L60.2465 25.2507C60.6306 26.1527 61.6476 27.2627 63.3356 27.2627C65.1321 27.2627 66.6479 26.2307 66.6479 23.7197V17.6097H65.1956V18.1607ZM63.4431 22.8677C62.3871 22.8677 61.5032 22.0047 61.5032 20.8167C61.5032 19.6177 62.3871 18.7427 63.4431 18.7427C64.4837 18.7427 65.3041 19.6177 65.3041 20.8167C65.3041 22.0047 64.4837 22.8677 63.4431 22.8677ZM83.4196 14.0008H79.7549V24.0007H81.2831V20.2117H83.4196C85.1168 20.2117 86.7811 19.0127 86.7811 17.1057C86.7811 15.1998 85.1127 14.0008 83.4196 14.0008ZM83.4596 18.8207H81.2831V15.3918H83.4596C84.6006 15.3918 85.252 16.3167 85.252 17.1057C85.252 17.8797 84.6006 18.8207 83.4596 18.8207ZM92.906 17.3837C91.8019 17.3837 90.6537 17.8597 90.1816 18.9147L91.5376 19.4697C91.8295 18.9147 92.3662 18.7347 92.9337 18.7347C93.7264 18.7347 94.5304 19.1997 94.5427 20.0207V20.1257C94.2662 19.9697 93.6742 19.7387 92.946 19.7387C91.4854 19.7387 89.9972 20.5237 89.9972 21.9887C89.9972 23.3287 91.1935 24.1917 92.5383 24.1917C93.5666 24.1917 94.1341 23.7387 94.4905 23.2117H94.5427V23.9847H96.0186V20.1487C96.0186 18.3757 94.6626 17.3837 92.906 17.3837ZM92.7216 22.8637C92.2218 22.8637 91.5254 22.6217 91.5254 22.0167C91.5254 21.2427 92.3939 20.9457 93.1457 20.9457C93.8186 20.9457 94.1341 21.0907 94.5427 21.2817C94.4229 22.2077 93.6066 22.8637 92.7216 22.8637ZM101.396 17.6027L99.6393 21.9377H99.587L97.7711 17.6027H96.1231L98.8516 23.6607L97.2948 27.0317H98.8916L103.096 17.6027H101.396ZM87.621 24.0007H89.1532V14.0008H87.621V24.0007Z" fill="white"/>
<path d="M8.54844 6.03143C8.30775 6.27743 8.16846 6.66042 8.16846 7.15642V24.8483C8.16846 25.3443 8.30775 25.7273 8.54844 25.9733L8.60785 26.0273L18.762 16.1174V15.8834L8.60785 5.97343L8.54844 6.03143Z" fill="url(#paint0_linear_558_5524)"/>
<path d="M22.1451 19.4219L18.7642 16.1169V15.8829L22.1492 12.5779L22.225 12.6209L26.2338 14.8479C27.3779 15.4799 27.3779 16.5199 26.2338 17.1559L22.225 19.3789L22.1451 19.4219Z" fill="url(#paint1_linear_558_5524)"/>
<path d="M22.2247 19.379L18.7639 16L8.55029 25.973C8.93028 26.363 9.54994 26.41 10.2546 26.02L22.2247 19.379Z" fill="url(#paint2_linear_558_5524)"/>
<path d="M22.2247 12.62L10.2546 5.97907C9.54994 5.59307 8.93028 5.64007 8.55029 6.03007L18.7639 15.999L22.2247 12.62Z" fill="url(#paint3_linear_558_5524)"/>
<defs>
<linearGradient id="paint0_linear_558_5524" x1="17.8605" y1="25.0326" x2="4.43845" y2="11.2853" gradientUnits="userSpaceOnUse">
<stop stop-color="#00A0FF"/>
<stop offset="0.0066" stop-color="#00A1FF"/>
<stop offset="0.2601" stop-color="#00BEFF"/>
<stop offset="0.5122" stop-color="#00D2FF"/>
<stop offset="0.7604" stop-color="#00DFFF"/>
<stop offset="1" stop-color="#00E3FF"/>
</linearGradient>
<linearGradient id="paint1_linear_558_5524" x1="27.7236" y1="15.9988" x2="7.89712" y2="15.9988" gradientUnits="userSpaceOnUse">
<stop stop-color="#FFE000"/>
<stop offset="0.4087" stop-color="#FFBD00"/>
<stop offset="0.7754" stop-color="#FFA500"/>
<stop offset="1" stop-color="#FF9C00"/>
</linearGradient>
<linearGradient id="paint2_linear_558_5524" x1="20.3428" y1="14.1632" x2="2.14149" y2="-4.47923" gradientUnits="userSpaceOnUse">
<stop stop-color="#FF3A44"/>
<stop offset="1" stop-color="#C31162"/>
</linearGradient>
<linearGradient id="paint3_linear_558_5524" x1="5.97932" y1="31.858" x2="14.107" y2="23.5334" gradientUnits="userSpaceOnUse">
<stop stop-color="#32A071"/>
<stop offset="0.0685" stop-color="#2DA771"/>
<stop offset="0.4762" stop-color="#15CF74"/>
<stop offset="0.8009" stop-color="#06E775"/>
<stop offset="1" stop-color="#00F076"/>
</linearGradient>
</defs>
</svg>
