<svg width="112" height="32" viewBox="0 0 112 32" fill="none" xmlns="http://www.w3.org/2000/svg">
<path d="M112 28.3284C112 30.072 110.558 31.4844 108.775 31.4844H3.22939C1.44688 31.4844 0 30.072 0 28.3284V3.16014C0 1.41733 1.44688 0 3.22939 0H108.774C110.558 0 111.999 1.41733 111.999 3.16014L112 28.3284Z" fill="#13244D"/>
<path d="M24.6456 15.5662C24.6213 12.9299 26.8596 11.6473 26.9619 11.5876C25.6943 9.7856 23.7294 9.53939 23.039 9.51976C21.3888 9.35044 19.7881 10.4825 18.9474 10.4825C18.09 10.4825 16.7955 9.53612 15.4003 9.56393C13.605 9.59092 11.9254 10.6044 11.0042 12.1782C9.10317 15.3871 10.521 20.1028 12.3424 22.6966C13.2535 23.9669 14.3181 25.3853 15.7116 25.3354C17.0749 25.2805 17.5841 24.4879 19.2293 24.4879C20.8594 24.4879 21.3376 25.3354 22.7588 25.3035C24.2219 25.2805 25.1431 24.0274 26.0223 22.7456C27.0752 21.2896 27.498 19.8557 27.5148 19.7821C27.4804 19.7707 24.6733 18.7261 24.6456 15.5662Z" fill="white"/>
<path d="M21.9609 7.81346C22.6942 6.91941 23.1959 5.70308 23.0566 4.46875C21.9953 4.51456 20.6681 5.18448 19.9038 6.0589C19.2276 6.82943 18.6236 8.09239 18.7796 9.28009C19.9718 9.3668 21.1958 8.6936 21.9609 7.81346Z" fill="white"/>
<path d="M44.3752 25.1513H42.4699L41.4263 21.9538H37.7987L36.8045 25.1513H34.9496L38.5437 14.2656H40.7635L44.3752 25.1513ZM41.1117 20.6123L40.1679 17.7698C40.068 17.4795 39.8809 16.7956 39.6049 15.7192H39.5714C39.4615 16.1821 39.2844 16.866 39.0411 17.7698L38.1141 20.6123H41.1117Z" fill="white"/>
<path d="M53.6181 21.1299C53.6181 22.4648 53.2481 23.52 52.5082 24.2947C51.8454 24.9842 51.0224 25.3286 50.04 25.3286C48.9795 25.3286 48.2178 24.9572 47.7538 24.2145H47.7203V28.3494H45.9316V19.8858C45.9316 19.0465 45.909 18.1852 45.8654 17.3018H47.4384L47.5382 18.5459H47.5718C48.1683 17.6085 49.0735 17.1406 50.2883 17.1406C51.238 17.1406 52.0308 17.5063 52.6651 18.2384C53.301 18.9713 53.6181 19.9348 53.6181 21.1299ZM51.7959 21.1937C51.7959 20.4297 51.6197 19.7999 51.2657 19.3042C50.8789 18.7872 50.3596 18.5287 49.7086 18.5287C49.2673 18.5287 48.8663 18.6727 48.5081 18.9565C48.149 19.2428 47.9141 19.6166 47.8042 20.0796C47.7488 20.2956 47.7211 20.4722 47.7211 20.6113V21.9201C47.7211 22.491 47.9007 22.9728 48.2597 23.3663C48.6188 23.7597 49.0853 23.956 49.6591 23.956C50.3328 23.956 50.8571 23.7024 51.2321 23.1969C51.608 22.6906 51.7959 22.0231 51.7959 21.1937Z" fill="white"/>
<path d="M62.8762 21.1299C62.8762 22.4648 62.5062 23.52 61.7654 24.2947C61.1035 24.9842 60.2805 25.3286 59.298 25.3286C58.2376 25.3286 57.4758 24.9572 57.0127 24.2145H56.9792V28.3494H55.1905V19.8858C55.1905 19.0465 55.1679 18.1852 55.1243 17.3018H56.6973L56.7971 18.5459H56.8307C57.4263 17.6085 58.3316 17.1406 59.5472 17.1406C60.4961 17.1406 61.2889 17.5063 61.9248 18.2384C62.5582 18.9713 62.8762 19.9348 62.8762 21.1299ZM61.054 21.1937C61.054 20.4297 60.877 19.7999 60.5229 19.3042C60.1362 18.7872 59.6185 18.5287 58.9667 18.5287C58.5245 18.5287 58.1244 18.6727 57.7653 18.9565C57.4062 19.2428 57.1721 19.6166 57.0622 20.0796C57.0077 20.2956 56.9792 20.4722 56.9792 20.6113V21.9201C56.9792 22.491 57.1587 22.9728 57.5161 23.3663C57.8752 23.7589 58.3416 23.956 58.9172 23.956C59.5908 23.956 60.1152 23.7024 60.4902 23.1969C60.8661 22.6906 61.054 22.0231 61.054 21.1937Z" fill="white"/>
<path d="M73.2301 22.0989C73.2301 23.0249 72.9004 23.7782 72.2385 24.3598C71.5111 24.9954 70.4985 25.3127 69.1973 25.3127C67.9959 25.3127 67.0328 25.087 66.3037 24.6346L66.7182 23.1811C67.5034 23.6441 68.365 23.8764 69.3038 23.8764C69.9775 23.8764 70.5018 23.7275 70.8785 23.4314C71.2535 23.1353 71.4406 22.7377 71.4406 22.2421C71.4406 21.8003 71.2862 21.4282 70.9767 21.1263C70.6688 20.8245 70.1545 20.5439 69.4364 20.2846C67.4816 19.5738 66.5051 18.5325 66.5051 17.1632C66.5051 16.2684 66.8474 15.5346 67.5328 14.9637C68.2157 14.3919 69.1268 14.1064 70.2661 14.1064C71.282 14.1064 72.126 14.279 72.7997 14.6234L72.3525 16.0451C71.7233 15.7113 71.0119 15.5445 70.2157 15.5445C69.5865 15.5445 69.0949 15.6958 68.7425 15.9968C68.4447 16.2659 68.2954 16.5939 68.2954 16.9825C68.2954 17.4127 68.4657 17.7685 68.808 18.0483C69.1058 18.3068 69.6469 18.5865 70.4322 18.8883C71.3928 19.2654 72.0984 19.7063 72.5522 20.2118C73.0044 20.7157 73.2301 21.3464 73.2301 22.0989Z" fill="white"/>
<path d="M79.1437 18.6112H77.1721V22.4222C77.1721 23.3915 77.5195 23.8757 78.2158 23.8757C78.5354 23.8757 78.8005 23.8487 79.0103 23.7948L79.0598 25.1191C78.7074 25.2475 78.2435 25.3121 77.6688 25.3121C76.9624 25.3121 76.4104 25.1019 76.0119 24.6823C75.615 24.2618 75.4154 23.5567 75.4154 22.5662V18.6096H74.2408V17.3008H75.4154V15.8636L77.1721 15.3467V17.3008H79.1437V18.6112Z" fill="white"/>
<path d="M88.0386 21.162C88.0386 22.3685 87.6846 23.359 86.9782 24.1337C86.2374 24.9312 85.2541 25.3287 84.0284 25.3287C82.8472 25.3287 81.9067 24.9467 81.2054 24.1828C80.504 23.4188 80.1533 22.4544 80.1533 21.292C80.1533 20.0757 80.5141 19.0794 81.2381 18.3048C81.9604 17.5293 82.9353 17.1416 84.161 17.1416C85.3422 17.1416 86.2928 17.5236 87.0101 18.2884C87.6963 19.0303 88.0386 19.9882 88.0386 21.162ZM86.1829 21.2184C86.1829 20.4945 86.0243 19.8736 85.703 19.3559C85.328 18.7293 84.7919 18.4168 84.0972 18.4168C83.3782 18.4168 82.8321 18.7301 82.4571 19.3559C82.1358 19.8745 81.9772 20.5051 81.9772 21.2511C81.9772 21.975 82.1358 22.5959 82.4571 23.1128C82.8438 23.7394 83.3841 24.0519 84.0813 24.0519C84.7642 24.0519 85.3003 23.7329 85.687 23.0965C86.0167 22.5689 86.1829 21.9415 86.1829 21.2184Z" fill="white"/>
<path d="M93.8527 18.8355C93.6757 18.8036 93.4869 18.7872 93.2889 18.7872C92.6597 18.7872 92.1731 19.0187 91.8308 19.4825C91.533 19.8915 91.3837 20.4084 91.3837 21.0326V25.1511H89.5959L89.6127 19.7737C89.6127 18.869 89.59 18.0453 89.5455 17.3026H91.1035L91.1689 18.8044H91.2184C91.4072 18.2882 91.705 17.8727 92.1127 17.5611C92.5112 17.2805 92.9416 17.1406 93.4056 17.1406C93.5708 17.1406 93.7202 17.1521 93.8527 17.1725V18.8355Z" fill="white"/>
<path d="M101.852 20.8561C101.852 21.1686 101.831 21.432 101.787 21.6471H96.421C96.4419 22.4225 96.7012 23.0156 97.1995 23.4246C97.6517 23.7902 98.2364 23.9734 98.9546 23.9734C99.7491 23.9734 100.474 23.8499 101.126 23.6021L101.406 24.8127C100.644 25.1366 99.7449 25.2977 98.7071 25.2977C97.4587 25.2977 96.4788 24.9395 95.7657 24.2237C95.0543 23.508 94.6978 22.5469 94.6978 21.3412C94.6978 20.1576 95.0291 19.1719 95.6928 18.3858C96.3874 17.5466 97.3262 17.127 98.5074 17.127C99.6677 17.127 100.546 17.5466 101.143 18.3858C101.615 19.0525 101.852 19.877 101.852 20.8561ZM100.147 20.4038C100.158 19.8868 100.042 19.4402 99.7994 19.0631C99.4898 18.578 99.0142 18.3359 98.374 18.3359C97.7893 18.3359 97.3136 18.5723 96.9503 19.0467C96.6525 19.4238 96.4755 19.8762 96.421 20.403H100.147V20.4038Z" fill="white"/>
<path d="M40.5196 7.56968C40.5196 8.53244 40.2235 9.25717 39.632 9.74387C39.0842 10.1929 38.3056 10.4179 37.2972 10.4179C36.7972 10.4179 36.3693 10.3966 36.0111 10.3541V5.09367C36.4784 5.02005 36.9818 4.98242 37.5254 4.98242C38.486 4.98242 39.21 5.1861 39.6983 5.59345C40.2453 6.05397 40.5196 6.71244 40.5196 7.56968ZM39.5926 7.59341C39.5926 6.96929 39.4231 6.49077 39.0842 6.15704C38.7453 5.82412 38.2503 5.65725 37.5984 5.65725C37.3216 5.65725 37.0858 5.67525 36.8903 5.71288V9.71197C36.9986 9.72833 37.1965 9.73569 37.4843 9.73569C38.1571 9.73569 38.6765 9.55328 39.0422 9.18846C39.408 8.82364 39.5926 8.29196 39.5926 7.59341Z" fill="white"/>
<path d="M45.437 8.41112C45.437 9.00415 45.2634 9.49003 44.916 9.87121C44.5519 10.263 44.0695 10.4585 43.4672 10.4585C42.8866 10.4585 42.4244 10.2712 42.0796 9.89493C41.7356 9.51948 41.5636 9.04587 41.5636 8.47492C41.5636 7.8778 41.7406 7.38783 42.0963 7.00747C42.452 6.62711 42.9303 6.43652 43.5326 6.43652C44.1132 6.43652 44.5796 6.62384 44.9328 6.99929C45.2684 7.36411 45.437 7.83526 45.437 8.41112ZM44.5251 8.43893C44.5251 8.08311 44.4462 7.77801 44.2894 7.52362C44.1048 7.21606 43.8422 7.06228 43.5007 7.06228C43.1475 7.06228 42.8791 7.21606 42.6945 7.52362C42.5368 7.77801 42.4588 8.08802 42.4588 8.45447C42.4588 8.81029 42.5376 9.1154 42.6945 9.36979C42.8849 9.67735 43.1501 9.83113 43.4923 9.83113C43.8279 9.83113 44.0914 9.6749 44.281 9.36161C44.4437 9.10231 44.5251 8.79475 44.5251 8.43893Z" fill="white"/>
<path d="M52.027 6.51367L50.7896 10.3696H49.9842L49.4716 8.69522C49.3415 8.27723 49.2358 7.8617 49.1536 7.44944H49.1377C49.0613 7.87315 48.9556 8.28787 48.8197 8.69522L48.2752 10.3696H47.4606L46.297 6.51367H47.2005L47.6477 8.34676C47.7559 8.78029 47.8449 9.19337 47.9162 9.58436H47.9321C47.9975 9.26208 48.1058 8.85145 48.2585 8.35494L48.8197 6.51449H49.5362L50.074 8.31568C50.204 8.75493 50.3097 9.17782 50.3911 9.58518H50.4154C50.475 9.18846 50.5647 8.76556 50.6839 8.31568L51.1637 6.51449H52.027V6.51367Z" fill="white"/>
<path d="M56.5852 10.3705H55.706V8.16198C55.706 7.48142 55.4409 7.14114 54.909 7.14114C54.6481 7.14114 54.4375 7.23439 54.2739 7.42171C54.112 7.60903 54.0298 7.82988 54.0298 8.08264V10.3697H53.1505V7.61639C53.1505 7.27775 53.1396 6.91047 53.1187 6.51294H53.8913L53.9324 7.11579H53.9568C54.0591 6.92847 54.2118 6.77387 54.4123 6.65036C54.6506 6.50639 54.9174 6.43359 55.2093 6.43359C55.5784 6.43359 55.8855 6.54975 56.1296 6.78287C56.4333 7.06834 56.5852 7.49451 56.5852 8.06055V10.3705Z" fill="white"/>
<path d="M59.0096 10.3703H58.1312V4.74512H59.0096V10.3703Z" fill="white"/>
<path d="M64.1845 8.41112C64.1845 9.00415 64.0108 9.49003 63.6635 9.87121C63.2994 10.263 62.8161 10.4585 62.2146 10.4585C61.6332 10.4585 61.171 10.2712 60.827 9.89493C60.483 9.51948 60.311 9.04587 60.311 8.47492C60.311 7.8778 60.4881 7.38783 60.8438 7.00747C61.1995 6.62711 61.6777 6.43652 62.2792 6.43652C62.8606 6.43652 63.3262 6.62384 63.6803 6.99929C64.0158 7.36411 64.1845 7.83526 64.1845 8.41112ZM63.2717 8.43893C63.2717 8.08311 63.1928 7.77801 63.0359 7.52362C62.8522 7.21606 62.5888 7.06228 62.2482 7.06228C61.8941 7.06228 61.6257 7.21606 61.4419 7.52362C61.2842 7.77801 61.2062 8.08802 61.2062 8.45447C61.2062 8.81029 61.2851 9.1154 61.4419 9.36979C61.6324 9.67735 61.8975 9.83113 62.2398 9.83113C62.5754 9.83113 62.838 9.6749 63.0276 9.36161C63.1912 9.10231 63.2717 8.79475 63.2717 8.43893Z" fill="white"/>
<path d="M68.44 10.371H67.6505L67.5851 9.92683H67.5608C67.2906 10.281 66.9055 10.4585 66.4055 10.4585C66.0322 10.4585 65.7302 10.3415 65.5028 10.1092C65.2964 9.8982 65.1932 9.63563 65.1932 9.32398C65.1932 8.85283 65.3946 8.49374 65.7998 8.24507C66.2042 7.99641 66.773 7.87453 67.5054 7.88025V7.80827C67.5054 7.30031 67.2319 7.04673 66.6841 7.04673C66.2939 7.04673 65.95 7.14244 65.653 7.33221L65.4743 6.76944C65.8417 6.54777 66.2956 6.43652 66.8309 6.43652C67.8645 6.43652 68.3829 6.96821 68.3829 8.03158V9.45159C68.3829 9.83686 68.4022 10.1436 68.44 10.371ZM67.5272 9.04587V8.4512C66.5574 8.43484 66.0725 8.69414 66.0725 9.22828C66.0725 9.4295 66.1278 9.58001 66.2411 9.68062C66.3543 9.78123 66.4986 9.83113 66.6706 9.83113C66.8636 9.83113 67.044 9.77142 67.2084 9.65281C67.3737 9.53339 67.4752 9.38206 67.5129 9.19638C67.5222 9.15466 67.5272 9.10395 67.5272 9.04587Z" fill="white"/>
<path d="M73.4351 10.3703H72.6548L72.6137 9.75114H72.5894C72.3402 10.2223 71.9157 10.4579 71.3192 10.4579C70.8427 10.4579 70.4459 10.2755 70.1313 9.91064C69.8167 9.54583 69.6598 9.07222 69.6598 8.49064C69.6598 7.86652 69.8301 7.36101 70.1724 6.97492C70.5038 6.61501 70.9098 6.43506 71.3931 6.43506C71.9241 6.43506 72.2958 6.60929 72.5072 6.95856H72.524V4.74512H73.404V9.33152C73.404 9.70697 73.4141 10.053 73.4351 10.3703ZM72.524 8.74421V8.10128C72.524 7.99003 72.5156 7.90006 72.4996 7.83135C72.4501 7.62522 72.3436 7.4518 72.1817 7.31193C72.0181 7.17206 71.8209 7.10171 71.5936 7.10171C71.2655 7.10171 71.0088 7.2285 70.8201 7.48289C70.633 7.73728 70.5382 8.06202 70.5382 8.45873C70.5382 8.83991 70.6279 9.14911 70.8083 9.38714C70.9988 9.64071 71.2555 9.7675 71.5768 9.7675C71.8654 9.7675 72.0961 9.66198 72.2714 9.45012C72.4409 9.25463 72.524 9.01905 72.524 8.74421Z" fill="white"/>
<path d="M80.9552 8.41112C80.9552 9.00415 80.7816 9.49003 80.4342 9.87121C80.0701 10.263 79.5886 10.4585 78.9854 10.4585C78.4057 10.4585 77.9434 10.2712 77.5977 9.89493C77.2538 9.51948 77.0818 9.04587 77.0818 8.47492C77.0818 7.8778 77.2588 7.38783 77.6145 7.00747C77.9702 6.62711 78.4484 6.43652 79.0516 6.43652C79.6314 6.43652 80.0987 6.62384 80.451 6.99929C80.7866 7.36411 80.9552 7.83526 80.9552 8.41112ZM80.0441 8.43893C80.0441 8.08311 79.9653 7.77801 79.8084 7.52362C79.623 7.21606 79.3612 7.06228 79.0189 7.06228C78.6666 7.06228 78.3981 7.21606 78.2127 7.52362C78.055 7.77801 77.9769 8.08802 77.9769 8.45447C77.9769 8.81029 78.0558 9.1154 78.2127 9.36979C78.4031 9.67735 78.6682 9.83113 79.0105 9.83113C79.3461 9.83113 79.6104 9.6749 79.8 9.36161C79.9619 9.10231 80.0441 8.79475 80.0441 8.43893Z" fill="white"/>
<path d="M85.6842 10.3705H84.8058V8.16198C84.8058 7.48142 84.5407 7.14114 84.008 7.14114C83.7471 7.14114 83.5365 7.23439 83.3737 7.42171C83.211 7.60903 83.1296 7.82988 83.1296 8.08264V10.3697H82.2495V7.61639C82.2495 7.27775 82.2395 6.91047 82.2185 6.51294H82.9903L83.0314 7.11579H83.0558C83.159 6.92847 83.3117 6.77387 83.5113 6.65036C83.7504 6.50639 84.0164 6.43359 84.3092 6.43359C84.6775 6.43359 84.9845 6.54975 85.2287 6.78287C85.5332 7.06834 85.6842 7.49451 85.6842 8.06055V10.3705Z" fill="white"/>
<path d="M91.5993 7.15613H90.6311V9.0293C90.6311 9.50536 90.8031 9.74339 91.1437 9.74339C91.3015 9.74339 91.4323 9.7303 91.5355 9.70331L91.5582 10.3536C91.3845 10.4174 91.1563 10.4493 90.8753 10.4493C90.528 10.4493 90.2578 10.3462 90.0623 10.1401C89.866 9.93398 89.7687 9.58716 89.7687 9.10046V7.15613H89.1907V6.51402H89.7687V5.80728L90.6303 5.55371V6.5132H91.5985V7.15613H91.5993Z" fill="white"/>
<path d="M96.254 10.3703H95.374V8.17817C95.374 7.48698 95.1088 7.14097 94.5778 7.14097C94.1701 7.14097 93.8915 7.34138 93.7388 7.74219C93.7128 7.82644 93.6977 7.9295 93.6977 8.05056V10.3695H92.8193V4.74512H93.6977V7.06899H93.7145C93.9914 6.6461 94.3882 6.43506 94.9025 6.43506C95.2666 6.43506 95.5678 6.55121 95.8069 6.78433C96.1047 7.07472 96.254 7.50661 96.254 8.07756V10.3703Z" fill="white"/>
<path d="M101.056 8.26016C101.056 8.41394 101.045 8.54318 101.024 8.6487H98.3869C98.3987 9.02988 98.5245 9.32026 98.7686 9.52148C98.9918 9.70144 99.2796 9.79142 99.6319 9.79142C100.022 9.79142 100.378 9.73089 100.698 9.60901L100.836 10.2045C100.461 10.3632 100.02 10.4425 99.5086 10.4425C98.8961 10.4425 98.4138 10.2667 98.0647 9.91493C97.7141 9.5632 97.5404 9.09123 97.5404 8.49901C97.5404 7.91743 97.7023 7.43319 98.0287 7.0471C98.3693 6.63484 98.8299 6.42871 99.4113 6.42871C99.9801 6.42871 100.412 6.63484 100.704 7.0471C100.94 7.37429 101.056 7.77919 101.056 8.26016ZM100.217 8.03849C100.224 7.7841 100.166 7.56488 100.047 7.38002C99.8945 7.14199 99.6621 7.02256 99.3475 7.02256C99.0606 7.02256 98.8265 7.13872 98.6478 7.37184C98.5018 7.55752 98.4154 7.77919 98.3869 8.03849H100.217Z" fill="white"/>
</svg>
