<svg width="111" height="32" viewBox="0 0 111 32" fill="none" xmlns="http://www.w3.org/2000/svg">
<path d="M106.52 32H4.09691C1.84463 32 0 30.199 0 28V4.00013C0 1.80114 1.84463 0.000145778 4.09691 0.000145778H106.52C108.772 0.000145778 110.616 1.80114 110.616 4.00013V28C110.616 30.199 108.772 32 106.52 32Z" fill="#13244D"/>
<g clip-path="url(#clip0_558_5642)">
<path d="M16 20.998C18.7614 20.998 21 18.7595 21 15.998C21 13.2366 18.7614 10.998 16 10.998C13.2386 10.998 11 13.2366 11 15.998C11 18.7595 13.2386 20.998 16 20.998Z" fill="white"/>
<path d="M15.9998 11H24.6586C23.7812 9.47976 22.519 8.21731 20.9989 7.3396C19.4788 6.4619 17.7544 5.99988 15.9991 6C14.2438 6.00012 12.5195 6.46238 10.9995 7.3403C9.47958 8.21822 8.21754 9.48085 7.34033 11.0012L11.6697 18.5L11.6736 18.499C11.2332 17.7395 11.0008 16.8774 10.9998 15.9995C10.9988 15.1215 11.2293 14.2589 11.668 13.4984C12.1067 12.7379 12.7381 12.1066 13.4987 11.6679C14.2592 11.2293 15.1219 10.9989 15.9998 11Z" fill="url(#paint0_linear_558_5642)"/>
<path d="M15.9998 19.9587C18.186 19.9587 19.9582 18.1865 19.9582 16.0003C19.9582 13.8142 18.186 12.042 15.9998 12.042C13.8137 12.042 12.0415 13.8142 12.0415 16.0003C12.0415 18.1865 13.8137 19.9587 15.9998 19.9587Z" fill="#1A73E8"/>
<path d="M20.3297 18.5009L16.0003 25.9997C17.7556 25.9999 19.48 25.538 21.0002 24.6604C22.5203 23.7828 23.7826 22.5205 24.6602 21.0003C25.5377 19.4801 25.9995 17.7557 25.9992 16.0004C25.9989 14.2451 25.5364 12.5208 24.6584 11.001H15.9996L15.9985 11.0049C16.8765 11.0032 17.7393 11.2329 18.5001 11.6711C19.261 12.1092 19.8928 12.7401 20.332 13.5003C20.7713 14.2604 21.0023 15.123 21.0019 16.0009C21.0015 16.8788 20.7697 17.7411 20.3297 18.5009Z" fill="url(#paint1_linear_558_5642)"/>
<path d="M11.67 18.5017L7.34062 11.0029C6.46276 12.5229 6.00055 14.2473 6.00049 16.0026C6.00042 17.7578 6.4625 19.4822 7.34025 21.0023C8.218 22.5223 9.48049 23.7845 11.0008 24.6619C12.5211 25.5393 14.2455 26.0009 16.0008 26.0004L20.3302 18.5016L20.3275 18.4988C19.8899 19.26 19.2595 19.8923 18.4997 20.3321C17.7399 20.772 16.8775 21.0037 15.9996 21.004C15.1217 21.0043 14.2592 20.7731 13.499 20.3338C12.7389 19.8945 12.1081 19.2626 11.67 18.5017Z" fill="url(#paint2_linear_558_5642)"/>
</g>
<path d="M38.18 13.1C37.4733 13.1 36.8333 12.9467 36.26 12.64C35.6933 12.3267 35.2467 11.8967 34.92 11.35C34.6 10.8033 34.44 10.1867 34.44 9.5C34.44 8.81333 34.6033 8.19667 34.93 7.65C35.2567 7.10333 35.7033 6.67667 36.27 6.37C36.8433 6.05667 37.4833 5.9 38.19 5.9C38.7633 5.9 39.2867 6 39.76 6.2C40.2333 6.4 40.6333 6.69 40.96 7.07L40.12 7.86C39.6133 7.31333 38.99 7.04 38.25 7.04C37.77 7.04 37.34 7.14667 36.96 7.36C36.58 7.56667 36.2833 7.85667 36.07 8.23C35.8567 8.60333 35.75 9.02667 35.75 9.5C35.75 9.97333 35.8567 10.3967 36.07 10.77C36.2833 11.1433 36.58 11.4367 36.96 11.65C37.34 11.8567 37.77 11.96 38.25 11.96C38.99 11.96 39.6133 11.6833 40.12 11.13L40.96 11.93C40.6333 12.31 40.23 12.6 39.75 12.8C39.2767 13 38.7533 13.1 38.18 13.1ZM45.1156 7.6C45.789 7.6 46.329 7.79667 46.7356 8.19C47.1423 8.58333 47.3456 9.16667 47.3456 9.94V13H46.0956V10.1C46.0956 9.63333 45.9856 9.28333 45.7656 9.05C45.5456 8.81 45.2323 8.69 44.8256 8.69C44.3656 8.69 44.0023 8.83 43.7356 9.11C43.469 9.38333 43.3356 9.78 43.3356 10.3V13H42.0856V5.58H43.3356V8.28C43.5423 8.06 43.7956 7.89333 44.0956 7.78C44.4023 7.66 44.7423 7.6 45.1156 7.6ZM50.1213 8.44C50.4813 7.88 51.1147 7.6 52.0213 7.6V8.79C51.9147 8.77 51.818 8.76 51.7313 8.76C51.2447 8.76 50.8647 8.90333 50.5913 9.19C50.318 9.47 50.1813 9.87667 50.1813 10.41V13H48.9313V7.66H50.1213V8.44ZM55.4329 13.07C54.8929 13.07 54.4062 12.9533 53.9729 12.72C53.5396 12.4867 53.1996 12.1633 52.9529 11.75C52.7129 11.33 52.5929 10.8567 52.5929 10.33C52.5929 9.80333 52.7129 9.33333 52.9529 8.92C53.1996 8.50667 53.5396 8.18333 53.9729 7.95C54.4062 7.71667 54.8929 7.6 55.4329 7.6C55.9796 7.6 56.4696 7.71667 56.9029 7.95C57.3362 8.18333 57.6729 8.50667 57.9129 8.92C58.1596 9.33333 58.2829 9.80333 58.2829 10.33C58.2829 10.8567 58.1596 11.33 57.9129 11.75C57.6729 12.1633 57.3362 12.4867 56.9029 12.72C56.4696 12.9533 55.9796 13.07 55.4329 13.07ZM55.4329 12C55.8929 12 56.2729 11.8467 56.5729 11.54C56.8729 11.2333 57.0229 10.83 57.0229 10.33C57.0229 9.83 56.8729 9.42667 56.5729 9.12C56.2729 8.81333 55.8929 8.66 55.4329 8.66C54.9729 8.66 54.5929 8.81333 54.2929 9.12C53.9996 9.42667 53.8529 9.83 53.8529 10.33C53.8529 10.83 53.9996 11.2333 54.2929 11.54C54.5929 11.8467 54.9729 12 55.4329 12ZM66.2182 7.6C66.8915 7.6 67.4249 7.79667 67.8182 8.19C68.2115 8.57667 68.4082 9.16 68.4082 9.94V13H67.1582V10.1C67.1582 9.63333 67.0549 9.28333 66.8482 9.05C66.6415 8.81 66.3449 8.69 65.9582 8.69C65.5382 8.69 65.2015 8.83 64.9482 9.11C64.6949 9.38333 64.5682 9.77667 64.5682 10.29V13H63.3182V10.1C63.3182 9.63333 63.2149 9.28333 63.0082 9.05C62.8015 8.81 62.5049 8.69 62.1182 8.69C61.6915 8.69 61.3515 8.82667 61.0982 9.1C60.8515 9.37333 60.7282 9.77 60.7282 10.29V13H59.4782V7.66H60.6682V8.34C60.8682 8.1 61.1182 7.91667 61.4182 7.79C61.7182 7.66333 62.0515 7.6 62.4182 7.6C62.8182 7.6 63.1715 7.67667 63.4782 7.83C63.7915 7.97667 64.0382 8.19667 64.2182 8.49C64.4382 8.21 64.7215 7.99333 65.0682 7.84C65.4149 7.68 65.7982 7.6 66.2182 7.6ZM75.0744 10.36C75.0744 10.4467 75.0677 10.57 75.0544 10.73H70.8644C70.9377 11.1233 71.1277 11.4367 71.4344 11.67C71.7477 11.8967 72.1344 12.01 72.5944 12.01C73.181 12.01 73.6644 11.8167 74.0444 11.43L74.7144 12.2C74.4744 12.4867 74.171 12.7033 73.8044 12.85C73.4377 12.9967 73.0244 13.07 72.5644 13.07C71.9777 13.07 71.461 12.9533 71.0144 12.72C70.5677 12.4867 70.221 12.1633 69.9744 11.75C69.7344 11.33 69.6144 10.8567 69.6144 10.33C69.6144 9.81 69.731 9.34333 69.9644 8.93C70.2044 8.51 70.5344 8.18333 70.9544 7.95C71.3744 7.71667 71.8477 7.6 72.3744 7.6C72.8944 7.6 73.3577 7.71667 73.7644 7.95C74.1777 8.17667 74.4977 8.5 74.7244 8.92C74.9577 9.33333 75.0744 9.81333 75.0744 10.36ZM72.3744 8.6C71.9744 8.6 71.6344 8.72 71.3544 8.96C71.081 9.19333 70.9144 9.50667 70.8544 9.9H73.8844C73.831 9.51333 73.6677 9.2 73.3944 8.96C73.121 8.72 72.781 8.6 72.3744 8.6ZM40.19 23.91V25H34.94V18H40.05V19.09H36.24V20.91H39.62V21.98H36.24V23.91H40.19ZM44.8216 25L43.4516 23.15L42.0716 25H40.6916L42.7716 22.29L40.7816 19.66H42.1716L43.4816 21.41L44.7916 19.66H46.1416L44.1416 22.27L46.2316 25H44.8216ZM50.364 24.71C50.2173 24.83 50.0373 24.92 49.824 24.98C49.6173 25.04 49.3973 25.07 49.164 25.07C48.5773 25.07 48.124 24.9167 47.804 24.61C47.484 24.3033 47.324 23.8567 47.324 23.27V20.7H46.444V19.7H47.324V18.48H48.574V19.7H50.004V20.7H48.574V23.24C48.574 23.5 48.6373 23.7 48.764 23.84C48.8907 23.9733 49.074 24.04 49.314 24.04C49.594 24.04 49.8273 23.9667 50.014 23.82L50.364 24.71ZM56.2365 22.36C56.2365 22.4467 56.2298 22.57 56.2165 22.73H52.0265C52.0998 23.1233 52.2898 23.4367 52.5965 23.67C52.9098 23.8967 53.2965 24.01 53.7565 24.01C54.3432 24.01 54.8265 23.8167 55.2065 23.43L55.8765 24.2C55.6365 24.4867 55.3332 24.7033 54.9665 24.85C54.5998 24.9967 54.1865 25.07 53.7265 25.07C53.1398 25.07 52.6232 24.9533 52.1765 24.72C51.7298 24.4867 51.3832 24.1633 51.1365 23.75C50.8965 23.33 50.7765 22.8567 50.7765 22.33C50.7765 21.81 50.8932 21.3433 51.1265 20.93C51.3665 20.51 51.6965 20.1833 52.1165 19.95C52.5365 19.7167 53.0098 19.6 53.5365 19.6C54.0565 19.6 54.5198 19.7167 54.9265 19.95C55.3398 20.1767 55.6598 20.5 55.8865 20.92C56.1198 21.3333 56.2365 21.8133 56.2365 22.36ZM53.5365 20.6C53.1365 20.6 52.7965 20.72 52.5165 20.96C52.2432 21.1933 52.0765 21.5067 52.0165 21.9H55.0465C54.9932 21.5133 54.8298 21.2 54.5565 20.96C54.2832 20.72 53.9432 20.6 53.5365 20.6ZM60.4672 19.6C61.1405 19.6 61.6805 19.7967 62.0872 20.19C62.4939 20.5833 62.6972 21.1667 62.6972 21.94V25H61.4472V22.1C61.4472 21.6333 61.3372 21.2833 61.1172 21.05C60.8972 20.81 60.5839 20.69 60.1772 20.69C59.7172 20.69 59.3539 20.83 59.0872 21.11C58.8205 21.3833 58.6872 21.78 58.6872 22.3V25H57.4372V19.66H58.6272V20.35C58.8339 20.1033 59.0939 19.9167 59.4072 19.79C59.7205 19.6633 60.0739 19.6 60.4672 19.6ZM65.9329 25.07C65.4996 25.07 65.0762 25.0133 64.6629 24.9C64.2496 24.7867 63.9196 24.6433 63.6729 24.47L64.1529 23.52C64.3929 23.68 64.6796 23.81 65.0129 23.91C65.3529 24.0033 65.6862 24.05 66.0129 24.05C66.7596 24.05 67.1329 23.8533 67.1329 23.46C67.1329 23.2733 67.0362 23.1433 66.8429 23.07C66.6562 22.9967 66.3529 22.9267 65.9329 22.86C65.4929 22.7933 65.1329 22.7167 64.8529 22.63C64.5796 22.5433 64.3396 22.3933 64.1329 22.18C63.9329 21.96 63.8329 21.6567 63.8329 21.27C63.8329 20.7633 64.0429 20.36 64.4629 20.06C64.8896 19.7533 65.4629 19.6 66.1829 19.6C66.5496 19.6 66.9162 19.6433 67.2829 19.73C67.6496 19.81 67.9496 19.92 68.1829 20.06L67.7029 21.01C67.2496 20.7433 66.7396 20.61 66.1729 20.61C65.8062 20.61 65.5262 20.6667 65.3329 20.78C65.1462 20.8867 65.0529 21.03 65.0529 21.21C65.0529 21.41 65.1529 21.5533 65.3529 21.64C65.5596 21.72 65.8762 21.7967 66.3029 21.87C66.7296 21.9367 67.0796 22.0133 67.3529 22.1C67.6262 22.1867 67.8596 22.3333 68.0529 22.54C68.2529 22.7467 68.3529 23.04 68.3529 23.42C68.3529 23.92 68.1362 24.32 67.7029 24.62C67.2696 24.92 66.6796 25.07 65.9329 25.07ZM69.4294 19.66H70.6794V25H69.4294V19.66ZM70.0594 18.78C69.8327 18.78 69.6427 18.71 69.4894 18.57C69.336 18.4233 69.2594 18.2433 69.2594 18.03C69.2594 17.8167 69.336 17.64 69.4894 17.5C69.6427 17.3533 69.8327 17.28 70.0594 17.28C70.286 17.28 70.476 17.35 70.6294 17.49C70.7827 17.6233 70.8594 17.7933 70.8594 18C70.8594 18.22 70.7827 18.4067 70.6294 18.56C70.4827 18.7067 70.2927 18.78 70.0594 18.78ZM74.72 25.07C74.18 25.07 73.6933 24.9533 73.26 24.72C72.8267 24.4867 72.4867 24.1633 72.24 23.75C72 23.33 71.88 22.8567 71.88 22.33C71.88 21.8033 72 21.3333 72.24 20.92C72.4867 20.5067 72.8267 20.1833 73.26 19.95C73.6933 19.7167 74.18 19.6 74.72 19.6C75.2667 19.6 75.7567 19.7167 76.19 19.95C76.6233 20.1833 76.96 20.5067 77.2 20.92C77.4467 21.3333 77.57 21.8033 77.57 22.33C77.57 22.8567 77.4467 23.33 77.2 23.75C76.96 24.1633 76.6233 24.4867 76.19 24.72C75.7567 24.9533 75.2667 25.07 74.72 25.07ZM74.72 24C75.18 24 75.56 23.8467 75.86 23.54C76.16 23.2333 76.31 22.83 76.31 22.33C76.31 21.83 76.16 21.4267 75.86 21.12C75.56 20.8133 75.18 20.66 74.72 20.66C74.26 20.66 73.88 20.8133 73.58 21.12C73.2867 21.4267 73.14 21.83 73.14 22.33C73.14 22.83 73.2867 23.2333 73.58 23.54C73.88 23.8467 74.26 24 74.72 24ZM81.7953 19.6C82.4686 19.6 83.0086 19.7967 83.4153 20.19C83.822 20.5833 84.0253 21.1667 84.0253 21.94V25H82.7753V22.1C82.7753 21.6333 82.6653 21.2833 82.4453 21.05C82.2253 20.81 81.912 20.69 81.5053 20.69C81.0453 20.69 80.682 20.83 80.4153 21.11C80.1486 21.3833 80.0153 21.78 80.0153 22.3V25H78.7653V19.66H79.9553V20.35C80.162 20.1033 80.422 19.9167 80.7353 19.79C81.0486 19.6633 81.402 19.6 81.7953 19.6Z" fill="#FEFEFE"/>
<defs>
<linearGradient id="paint0_linear_558_5642" x1="7.34033" y1="12.25" x2="24.6586" y2="12.25" gradientUnits="userSpaceOnUse">
<stop stop-color="#D93025"/>
<stop offset="1" stop-color="#EA4335"/>
</linearGradient>
<linearGradient id="paint1_linear_558_5642" x1="14.6342" y1="25.866" x2="23.2933" y2="10.8679" gradientUnits="userSpaceOnUse">
<stop stop-color="#FCC934"/>
<stop offset="1" stop-color="#FBBC04"/>
</linearGradient>
<linearGradient id="paint2_linear_558_5642" x1="17.0823" y1="25.3761" x2="8.42316" y2="10.3779" gradientUnits="userSpaceOnUse">
<stop stop-color="#1E8E3E"/>
<stop offset="1" stop-color="#34A853"/>
</linearGradient>
<clipPath id="clip0_558_5642">
<rect width="20" height="20" fill="white" transform="translate(6 6)"/>
</clipPath>
</defs>
</svg>
