<svg width="200" height="58" viewBox="0 0 200 58" fill="none" xmlns="http://www.w3.org/2000/svg">
<g clip-path="url(#clip0_7820_18863)">
<mask id="mask0_7820_18863" style="mask-type:luminance" maskUnits="userSpaceOnUse" x="0" y="0" width="201" height="58">
<path d="M200.002 0H0.00195312V57.46H200.002V0Z" fill="white"/>
</mask>
<g mask="url(#mask0_7820_18863)">
<path d="M92.3652 22.005H81.621C80.933 21.9998 80.2748 21.7172 79.79 21.2188C79.3052 20.7206 79.033 20.047 79.0332 19.345V18.885C79.0332 18.5383 79.1 18.195 79.2302 17.8747C79.3602 17.5544 79.5508 17.2634 79.7912 17.0182C80.0314 16.7731 80.3168 16.5786 80.6308 16.446C80.9448 16.3133 81.2812 16.245 81.621 16.245H98.9136V10.005H81.621C79.302 10.005 77.0778 10.9448 75.438 12.6176C73.7982 14.2904 72.8768 16.5593 72.8768 18.925V19.305C72.8768 21.6708 73.7982 23.9396 75.438 25.6124C77.0778 27.2852 79.302 28.225 81.621 28.225H92.3652C92.712 28.1936 93.0616 28.2362 93.3914 28.3502C93.7212 28.464 94.0242 28.6468 94.2812 28.8866C94.538 29.1264 94.7432 29.4182 94.8834 29.7432C95.0238 30.0684 95.0962 30.4198 95.0962 30.775C95.0962 31.1302 95.0238 31.4816 94.8834 31.8068C94.7432 32.1318 94.538 32.4236 94.2812 32.6634C94.0242 32.9032 93.7212 33.086 93.3914 33.1998C93.0616 33.3138 92.712 33.3564 92.3652 33.325H68.6224C67.9394 33.325 67.284 33.0496 66.7992 32.5588C66.3146 32.068 66.0396 31.4018 66.0344 30.705V10.705H59.937V30.705C59.9624 33.0468 60.8856 35.2852 62.509 36.9412C64.1324 38.5972 66.3268 39.539 68.6224 39.565H91.9142C94.128 39.6078 96.2792 38.8148 97.9546 37.3382C99.6302 35.8616 100.712 33.8056 100.992 31.565C101.089 30.3484 100.939 29.1244 100.549 27.97C100.16 26.8158 99.541 25.7562 98.7306 24.858C97.9202 23.96 96.9362 23.2428 95.8406 22.7518C94.7452 22.2608 93.5618 22.0064 92.3652 22.005Z" fill="#0D3A2C"/>
<path d="M191.335 10.2232H163.298C160.979 10.2232 158.755 11.163 157.115 12.8358C155.475 14.5087 154.554 16.7775 154.554 19.1432V31.1432C154.549 31.8418 154.275 32.5102 153.791 33.0042C153.306 33.4982 152.651 33.778 151.966 33.7832H147.79V33.6832V19.1432C147.79 16.7775 146.869 14.5087 145.229 12.8358C143.589 11.163 141.365 10.2232 139.046 10.2232H120.577V16.4232H138.968C139.313 16.4258 139.655 16.4985 139.973 16.6371C140.291 16.7757 140.579 16.9774 140.82 17.2305C141.061 17.4837 141.25 17.7831 141.376 18.1115C141.502 18.4399 141.563 18.7906 141.555 19.1432V21.1432H128.753C126.434 21.1432 124.21 22.083 122.57 23.7558C120.93 25.4286 120.009 27.6974 120.009 30.0632V33.5032L119.911 33.6032H115.676C114.988 33.598 114.329 33.3154 113.844 32.817C113.36 32.3188 113.088 31.6452 113.088 30.9432V0.86322H106.99V31.0832C106.99 33.4386 107.903 35.6984 109.531 37.3694C111.158 39.0406 113.367 39.9874 115.676 40.0032H151.966C153.119 40.011 154.263 39.7862 155.331 39.3414C156.398 38.8968 157.369 38.241 158.187 37.4118C159.006 36.5828 159.655 35.5968 160.098 34.5106C160.541 33.4244 160.769 32.2596 160.769 31.0832V19.0832C160.774 18.3847 161.049 17.7162 161.533 17.2222C162.017 16.7283 162.672 16.4485 163.357 16.4432H174.435V16.5432V39.6432H180.434V16.6032V16.5032H190.982C191.667 16.5085 192.322 16.7883 192.806 17.2822C193.291 17.7762 193.565 18.4447 193.57 19.1432V39.6232H199.452H199.55V19.0632C199.545 16.7203 198.63 14.4749 197.006 12.8182C195.382 11.1616 193.181 10.2285 190.884 10.2232M125.714 30.2232C125.719 29.5246 125.993 28.8562 126.478 28.3622C126.962 27.8682 127.617 27.5884 128.302 27.5832H141.026V27.6832V33.6832V33.7832H126.243C126.243 33.7832 126.243 33.7832 126.243 33.6832L125.714 30.2232Z" fill="#0D3A2C"/>
<path d="M59.9571 3.54111C59.9531 4.14321 60.1247 4.73291 60.4497 5.23547C60.7749 5.73801 61.2389 6.13077 61.7831 6.36393C62.3273 6.59709 62.9271 6.66015 63.5065 6.54513C64.0857 6.43009 64.6187 6.14215 65.0373 5.71781C65.4561 5.29347 65.7419 4.75183 65.8585 4.16159C65.9751 3.57135 65.9171 2.95909 65.6923 2.40243C65.4673 1.84577 65.0853 1.3698 64.5949 1.03487C64.1043 0.69994 63.5273 0.52113 62.9371 0.521118C62.1501 0.5211 61.3951 0.838638 60.8367 1.40443C60.2785 1.97022 59.9623 2.73833 59.9571 3.54111Z" fill="#0D3A2C"/>
<path d="M83.4434 49.1194C83.045 49.0972 82.6468 49.1686 82.2798 49.3282C81.9126 49.4876 81.5864 49.731 81.326 50.0394C80.7642 50.7494 80.4842 51.6488 80.5418 52.5594C80.503 53.452 80.7584 54.332 81.2672 55.0594C81.5286 55.3782 81.8604 55.6296 82.235 55.7928C82.6098 55.9562 83.0172 56.027 83.4238 55.9994C83.7724 55.9968 84.12 55.9634 84.463 55.8994C84.7874 55.8384 85.1082 55.7582 85.4236 55.6594V56.5794C85.1126 56.7028 84.791 56.7966 84.463 56.8594C84.0646 56.8842 83.6652 56.8842 83.267 56.8594C82.5252 56.8874 81.791 56.7002 81.1496 56.3194C80.5768 55.9586 80.1254 55.4284 79.8556 54.7994C79.5666 54.0552 79.4266 53.2596 79.4438 52.4594C79.4202 51.6806 79.5746 50.9068 79.8948 50.1994C80.1874 49.5552 80.6664 49.0178 81.2672 48.6594C81.9262 48.2668 82.6806 48.0726 83.4434 48.0994C84.2426 48.0764 85.0356 48.2478 85.757 48.5994L85.3256 49.4994C85.0516 49.3742 84.77 49.2674 84.4826 49.1794C84.1448 49.081 83.7946 49.034 83.4434 49.0394" fill="#0D3A2C"/>
<path d="M100.64 48.3008V51.8208H96.5225V48.3008H95.4639V56.8208H96.5225V52.9208H100.64V56.8208H101.698V48.3008H100.64Z" fill="#0D3A2C"/>
<path d="M117.285 56.8201L116.305 54.2201H113.031L112.05 56.8201H110.992L114.246 48.2601H115.207L118.462 56.8201H117.285ZM115.972 53.2201L115.031 50.6401L114.913 50.3001C114.849 50.1307 114.797 49.9569 114.756 49.7801C114.709 49.6425 114.67 49.5023 114.639 49.3601C114.639 49.6201 114.501 49.8601 114.442 50.1001C114.383 50.3401 114.325 50.5201 114.266 50.6401L113.325 53.2201H115.972Z" fill="#0D3A2C"/>
<path d="M134.184 56.8208H132.968L128.498 49.7408C128.498 50.0208 128.498 50.3608 128.498 50.7808C128.498 51.2008 128.498 51.6208 128.498 52.0608V56.8208H127.538V48.3008H128.753L133.321 55.3408C133.321 55.2208 133.321 55.0208 133.321 54.7808C133.321 54.5408 133.321 54.2408 133.321 53.9408C133.321 53.6408 133.321 53.3608 133.321 53.1008V48.3008H134.302L134.184 56.8208Z" fill="#0D3A2C"/>
<path d="M151.124 56.8208H149.908L145.438 49.7408C145.438 50.0208 145.438 50.3608 145.438 50.7808C145.438 51.2008 145.438 51.6208 145.438 52.0608V56.8208H144.478V48.3008H145.693L150.144 55.3408C150.144 55.2208 150.144 55.0208 150.144 54.7808C150.144 54.5408 150.144 54.2408 150.144 53.9408C150.144 53.6408 150.144 53.3608 150.144 53.1008V48.3008H151.124V56.8208Z" fill="#0D3A2C"/>
<path d="M161.456 48.3808V56.7408H166.044V55.8008H162.515L162.417 55.7008V52.9208C162.417 52.9208 162.417 52.9208 162.515 52.9208H165.828V52.0008H162.495V49.2408H166.122V48.3008H161.535L161.456 48.3808Z" fill="#0D3A2C"/>
<path d="M176.023 48.3008V56.7408H180.65V55.7808H177.141V48.3008H176.023Z" fill="#0D3A2C"/>
<path d="M4.90343 52.5216V52.4216V22.2016C4.90343 22.0816 5.15831 9.80159 21.5096 5.04159C37.9198 9.80159 38.116 21.7016 38.116 22.2216V52.4216V52.5216H4.90343ZM40.1942 13.0816C35.9788 5.30159 28.0972 1.74159 22.2744 0.141586C21.7654 -0.0322214 21.2148 -0.0322214 20.7058 0.141586C14.824 1.76159 6.98165 5.32159 2.64875 13.1016C1.0604 15.8802 0.152459 19.0087 0.00195312 22.2216V57.3616V57.4616H42.841V57.3616V22.2416C42.6966 19.015 41.7886 15.8721 40.1942 13.0816Z" fill="#FFCC05"/>
</g>
</g>
<defs>
<clipPath id="clip0_7820_18863">
<rect width="200" height="58" fill="white"/>
</clipPath>
</defs>
</svg>
