<svg width="224" height="33" viewBox="0 0 224 33" fill="none" xmlns="http://www.w3.org/2000/svg">
<path d="M54.2399 13.4013L53.8666 15.3051H53.7546C53.2693 14.2598 51.9255 12.7667 48.9391 12.7667C44.1236 12.7667 39.1961 16.4996 38.1136 22.3603C37.1803 27.5118 39.6441 32.0286 45.3555 32.0286C47.4459 32.0286 49.835 31.2074 51.1042 29.4529H51.2162L50.8802 31.394H56.2183L59.5407 13.4013H54.2399ZM52.4854 22.3603C52.1494 24.1148 50.4696 26.9892 47.11 26.9892C43.825 26.9892 43.153 24.1148 43.4517 22.435C43.825 20.3819 45.6541 17.8061 48.7898 17.8061C51.8508 17.8435 52.896 20.2699 52.4854 22.3603Z" fill="#2E2E2F"/>
<path d="M62.5645 13.4013H67.5667L67.2307 15.3051H67.3427C67.9773 14.4465 69.2465 12.7667 72.3075 12.7667L71.2996 18.2168C68.7612 18.2541 66.9321 18.7767 66.4468 21.5391L64.6176 31.394H59.2422L62.5645 13.4013Z" fill="#2E2E2F"/>
<path d="M75.8906 6.3833H81.3033L78.7649 19.9339H78.8396L85.0736 13.4012H91.4196L83.2071 21.3151L87.9106 31.394H81.826L78.3543 22.7336H78.2423L76.6745 31.394H71.2617L75.8906 6.3833Z" fill="#2E2E2F"/>
<path d="M100.043 12.7667C94.5929 12.7667 89.74 17.4702 88.8441 22.4723C87.8362 27.8104 91.4572 31.9913 96.6087 31.9913C98.4378 31.9913 100.342 31.4314 101.984 30.3488C103.701 29.3036 105.269 27.7731 106.464 25.7573H100.976C100.08 26.6905 99.0351 27.4371 97.3926 27.4371C95.3021 27.4371 93.7343 26.1679 93.8463 24.0401H107.322C107.472 23.6295 107.583 23.2936 107.695 22.6216C108.741 17.1342 105.53 12.7667 100.043 12.7667ZM94.5929 20.4192C95.0035 19.374 96.4967 17.3208 99.2964 17.3208C102.096 17.3208 102.768 19.3366 102.768 20.4192H94.5929Z" fill="#2E2E2F"/>
<path d="M30.9834 6.38336L21.5018 20.6432H21.4271V6.38336H16.8356L0 31.3941H6.53265L15.977 17.1342H16.0517V31.3941H20.6805L30.1249 17.1342H30.1995V31.3941H35.6123V6.38336H30.9834Z" fill="#2E2E2F"/>
<path d="M121.358 13.4013H117.961L118.969 8.06317H114.266L113.892 10.1163C113.482 12.468 111.989 13.1773 110.048 13.4013H110.01L109.189 17.4702H111.839L109.264 31.3567H114.639L117.215 17.4702H120.649L121.358 13.4013Z" fill="#2E2E2F"/>
<path d="M204.565 24.6001C202.811 28.669 198.592 32.0287 193.74 32.0287C188.289 32.0287 184.892 27.7358 185.863 22.3603C186.871 17.0969 191.724 12.804 197.137 12.804C201.877 12.804 205.162 15.977 205.274 20.3819H199.824C199.488 19.1127 198.667 17.8435 196.39 17.8435C193.852 17.7315 191.761 19.7846 191.276 22.3977C190.791 25.0481 192.134 26.9892 194.71 26.9892C196.913 26.9892 198.256 25.72 199.04 24.5628L204.565 24.6001ZM160.031 0L149.579 6.38334H152.528L143.046 20.6432H142.934V6.38334H138.305L128.861 20.6432H128.749V6.38334H123.374V31.3941H128.077L137.559 17.1342H137.671V31.3941H142.3L159.06 6.38334H161.711L160.031 0ZM170.222 31.3941H164.884L165.22 29.4529H165.108C163.839 31.2074 161.45 32.0287 159.359 32.0287C153.648 32.0287 151.184 27.5491 152.117 22.3603C153.162 16.4996 158.127 12.7667 162.943 12.7667C165.892 12.7667 167.273 14.2225 167.758 15.3051H167.87L168.244 13.4013H173.582L170.222 31.3941ZM161.188 27.0265C164.511 27.0265 166.19 24.1521 166.564 22.3977C166.937 20.2326 165.929 17.8435 162.868 17.8435C159.77 17.8435 157.941 20.4192 157.53 22.4723C157.231 24.1521 157.903 27.0265 161.188 27.0265ZM187.02 13.4013H183.661L184.668 8.06316H179.965L179.592 10.1163C179.181 12.468 177.688 13.1773 175.747 13.4013H175.672L174.888 17.4702H177.539L174.963 31.3567H180.338L182.914 17.4702H186.348L187.02 13.4013ZM209.642 6.38334H215.017L213.375 15.3051H213.487C214.644 13.6252 216.175 12.7667 218.564 12.7667C220.281 12.7667 222.222 13.4013 223.118 14.7825C224.275 16.5369 224.163 18.1048 223.528 21.3151L221.699 31.3567H216.324L218.116 21.5764C218.265 20.7178 218.788 17.8061 215.951 17.8061C212.927 17.8061 212.404 20.4939 212.255 21.3898L210.426 31.3567H205.05L209.642 6.38334Z" fill="#00AC4E"/>
</svg>
