<svg width="102" height="102" viewBox="0 0 102 102" fill="none" xmlns="http://www.w3.org/2000/svg">
<rect x="1" y="1.00488" width="100" height="100" rx="10" fill="#FEFCFC"/>
<rect x="0.5" y="0.504883" width="101" height="101" rx="10.5" stroke="#D0D0D0" stroke-opacity="0.38"/>
<path d="M61.4834 77.7751L60.355 70.0677L60.8983 68.599C61.4177 67.196 60.749 66.1035 60.1699 65.5662V61.1901L66.761 59.7931C67.0476 59.7334 67.2446 59.4766 67.2326 59.1841C67.2207 58.8916 66.9998 58.6528 66.7073 58.6169L60.1699 57.8348V57.6199L67.7759 52.8736C68.0207 52.7184 68.1222 52.408 68.0147 52.1393C67.9073 51.8707 67.6207 51.7154 67.3341 51.7811L59.0416 53.608C59.0356 53.608 59.0296 53.6139 59.0237 53.6139C58.8386 53.3871 58.6416 53.1781 58.4326 52.9811L63.2028 46.4199C63.3759 46.1811 63.352 45.8587 63.1431 45.6498C62.9341 45.4408 62.6117 45.411 62.3729 45.5841L55.2744 50.6468C55.167 50.7244 55.1013 50.8378 55.0595 50.9572C54.7252 50.8319 54.3908 50.7244 54.0505 50.6348L52.8744 42.4199C52.8326 42.1334 52.5938 41.9184 52.3013 41.9065C51.9908 41.8945 51.758 42.0975 51.6983 42.3841L49.9849 50.6348C49.5192 50.7542 49.0893 50.9035 48.6893 51.0766L40.9819 45.5722C40.7431 45.399 40.4147 45.4289 40.2117 45.6378C40.0028 45.8468 39.9789 46.1751 40.152 46.408L45.4774 53.7393C45.3819 53.8766 45.2923 54.0139 45.2087 54.1572L39.3461 52.9811L39.2505 51.6438C39.2505 51.596 39.2386 51.5542 39.2267 51.5125L36.4864 42.6707C36.4864 42.1453 36.4983 39.4766 36.4864 37.1304C36.4684 34.7841 35.2565 32.7483 34.8326 32.1095L34.9222 30.4378H35.1192C35.5132 30.4378 35.8893 30.2587 36.1461 29.9542L38.3908 27.2557C38.4326 27.208 38.4625 27.1542 38.4983 27.1005C38.6296 26.9931 38.7132 26.8319 38.7132 26.6528C38.7132 26.6229 38.7013 26.599 38.6953 26.5692C38.7073 26.5035 38.7132 26.4319 38.7132 26.3662V24.2468C38.7132 23.4886 38.1102 22.8677 37.3699 22.8677H34.9998C35.7281 21.4826 36.6237 18.611 33.961 13.1363C33.8476 12.8975 33.5908 12.7662 33.3281 12.808C33.0655 12.8498 32.8684 13.0587 32.8326 13.3214C32.7132 14.2587 32.0923 15.0587 30.9938 15.7095C30.8087 15.8229 30.6177 15.9244 30.4207 16.0319C29.5789 16.4916 28.7132 16.9692 28.0625 17.9005C27.1252 19.2498 27.0416 21.3453 27.7341 22.8677H26.2296C25.8714 22.8677 25.5311 23.011 25.2744 23.2736C25.0177 23.5423 24.8744 23.9065 24.8804 24.2826C24.8923 24.6408 24.8684 25.1005 24.8505 25.5005C24.8147 26.3005 24.8028 26.6348 24.8983 26.8796C24.9102 26.9154 24.9281 26.9453 24.9461 26.9751C25.0058 27.0647 26.361 29.1901 26.9461 29.9363C27.2028 30.2587 27.5849 30.4438 27.9908 30.4438H28.4386L28.5759 31.9542L27.2207 32.1035C26.2535 32.211 25.555 33.0826 25.6625 34.0498C25.7102 34.4796 25.9073 34.8736 26.2296 35.1602C25.9849 35.5125 25.8714 35.9363 25.9192 36.3662C25.967 36.796 26.164 37.1901 26.4864 37.4766C26.2476 37.8169 26.1281 38.2408 26.1759 38.6826C26.2296 39.1841 26.4923 39.6139 26.8684 39.8945C26.7252 40.1692 26.6595 40.4916 26.6953 40.8199C26.7849 41.6438 27.4893 42.2587 28.3013 42.2587C28.361 42.2587 28.4207 42.2528 28.4804 42.2468L29.5073 42.1334L29.7043 44.2587C29.6505 44.6348 29.5252 46.0378 29.9908 49.5244C30.4446 52.9393 31.4655 58.6169 31.7401 60.1154C30.6296 60.9393 27.1013 63.8886 27.1013 68.1751C27.1013 69.1244 27.0655 69.996 27.0356 70.7602C26.9162 73.7692 26.8267 75.9483 29.5789 76.4438C30.552 76.6169 31.0834 76.7304 31.3699 76.802C31.4834 77.996 31.8535 81.996 31.9908 83.6498C32.0565 84.4259 31.8714 84.9333 31.6625 85.5184C31.3998 86.2528 31.0953 87.0826 31.3461 88.402C31.4058 88.7244 31.7222 88.9393 32.0446 88.8796C32.367 88.8199 32.5819 88.5035 32.5222 88.1811C32.3311 87.1841 32.5461 86.599 32.7908 85.9244C32.9222 85.5662 33.0535 85.1781 33.1311 84.7184C34.9819 83.9005 44.4804 79.5125 46.7431 75.0169C46.8923 74.7244 46.7729 74.3662 46.4804 74.2169C46.1819 74.0677 45.8296 74.1871 45.6804 74.4796C43.7879 78.2468 35.7759 82.1871 33.1789 83.3871C33.0416 81.7393 32.7192 78.2647 32.5878 76.9095C38.6296 75.8826 40.958 69.7572 41.6804 67.1841L42.7132 68.3184C42.9281 68.5513 43.2864 68.5811 43.5311 68.3841L44.4028 67.6796L57.5968 77.3154C56.552 79.011 52.3789 85.1304 45.3043 87.5901C44.9938 87.6975 44.8267 88.0378 44.9341 88.3483C45.0177 88.5931 45.2505 88.7483 45.4953 88.7483C45.561 88.7483 45.6267 88.7363 45.6923 88.7125C53.2625 86.0796 57.555 79.6856 58.6416 77.8945L60.6655 78.7065C62.7849 79.7274 65.6267 81.5542 66.4207 84.2826C66.8087 85.6199 67.1252 87.1065 67.364 88.7005C67.4058 88.999 67.6625 89.208 67.955 89.208C67.9849 89.208 68.0147 89.208 68.0446 89.202C68.3729 89.1542 68.5938 88.8498 68.5461 88.5274C68.3013 86.8796 67.9729 85.3393 67.5729 83.9483C66.6834 80.9154 63.764 78.9154 61.4834 77.7751ZM50.6177 51.7095C50.9699 51.6319 51.3282 51.5901 51.6864 51.5722V54.1095C50.6416 54.0856 49.6923 54.1931 48.8326 54.4378V52.3244C49.358 52.0677 49.949 51.8528 50.6177 51.7095ZM58.9759 59.7513V61.7632C58.958 61.7513 58.952 61.7274 58.9341 61.7154C58.2476 61.2139 57.7281 60.0498 57.5849 59.6438C57.5789 59.6259 57.567 59.6139 57.555 59.596C57.5431 59.5662 57.5192 59.5363 57.5013 59.5065C57.4714 59.4647 57.4416 59.4289 57.3998 59.3931C57.3879 59.3811 57.3819 59.3632 57.364 59.3513C55.7102 58.1632 52.7908 56.1692 52.761 56.1453C52.6237 56.0498 52.4505 56.0199 52.2893 56.0557C52.1282 56.0916 51.9849 56.199 51.9073 56.3423C51.8953 56.3662 50.558 58.6707 47.2028 59.5901C47.1968 59.5901 47.1908 59.596 47.1849 59.596C47.167 59.602 47.155 59.6139 47.1371 59.6199C47.0834 59.6378 47.0416 59.6677 46.9938 59.6975C46.9819 59.7035 46.9759 59.7095 46.964 59.7154L44.964 61.4528V60.9811C44.9699 60.8736 45.1252 58.4259 46.9162 56.796C48.1162 55.7035 49.7938 55.202 51.949 55.3035C52.0207 55.3095 57.5132 55.1841 58.9759 59.7513ZM52.6774 69.0587C52.6714 69.0587 52.6595 69.0587 52.6535 69.0587C51.155 69.0348 50.3132 67.9722 49.2505 66.6229C49.0595 66.3841 48.8684 66.1393 48.6714 65.8945C47.9311 64.9931 47.5789 63.8169 47.7043 62.6647L47.9252 60.6348C50.5222 59.8229 51.9729 58.2886 52.5938 57.4766C53.4416 58.0617 55.2147 59.2796 56.4505 60.1632C56.4864 60.7005 56.5998 61.9662 56.8864 63.9841C56.361 65.5125 54.7311 69.0587 52.6774 69.0587ZM47.6386 54.9035C47.0834 55.1781 46.5699 55.5125 46.1162 55.9304C45.8117 56.205 45.555 56.5035 45.3222 56.802C45.4714 56.2886 45.6864 55.7274 45.9789 55.1662C46.0087 55.1244 46.0267 55.0766 46.0505 55.0289C46.4267 54.3542 46.9461 53.6856 47.6386 53.1184V54.9035ZM44.9819 62.7781C44.9998 62.7781 45.0237 62.7901 45.0416 62.7901C45.1789 62.7901 45.3222 62.7423 45.4356 62.6408L46.6177 61.6139L46.5222 62.5274C46.4028 63.6319 46.6237 64.7483 47.1431 65.7214V68.1931L44.9879 66.6229V62.7781H44.9819ZM48.3311 67.3811C49.4356 68.7841 50.5819 70.2229 52.6356 70.2528H52.6774C53.3341 70.2528 53.9371 70.0319 54.4804 69.6856V73.5662L48.3252 69.0707V67.3811H48.3311ZM55.6804 68.6229C55.7819 68.5095 55.8714 68.3901 55.967 68.2707L57.4953 75.7632L55.6804 74.4378V68.6229ZM60.1879 77.1781C59.6386 76.9513 59.1908 76.7841 58.8983 76.6886L56.9341 67.0528C56.9222 66.993 56.8923 66.9453 56.8685 66.8916C57.6147 65.5662 58.0207 64.3244 58.0565 64.211C58.0864 64.1274 58.0923 64.0319 58.0804 63.9423C57.9968 63.3453 57.9252 62.8259 57.8714 62.3602C57.9849 62.4736 58.1043 62.5751 58.2296 62.6707C58.3371 62.7483 58.4565 62.7841 58.5819 62.7841C58.7311 62.7841 58.8685 62.7184 58.9759 62.611V65.8348C58.9759 66.0259 59.0714 66.211 59.2326 66.3244C59.3341 66.396 60.1938 67.0528 59.7759 68.1751L59.1789 69.7871C59.1431 69.8826 59.1311 69.9841 59.149 70.0796L60.1879 77.1781ZM62.9879 59.3692L60.1759 59.9662V59.0348L62.9879 59.3692ZM64.2117 53.6856L60.1759 56.205V55.9125C60.1759 55.8587 60.1699 55.805 60.152 55.7513C60.0446 55.3632 59.8953 55.005 59.7222 54.6707L64.2117 53.6856ZM58.9759 55.996V57.1901C58.4625 56.5274 57.8535 56.002 57.2207 55.596V53.5065C58.0087 54.1453 58.6714 54.9632 58.9759 55.996ZM57.4953 52.2229C57.0714 51.9244 56.6296 51.6677 56.1879 51.4468L60.0685 48.6766L57.4953 52.2229ZM56.0267 52.7125V54.9692C54.8267 54.4498 53.6505 54.2468 52.8804 54.1692V51.6319C53.5132 51.7095 54.1461 51.8707 54.7729 52.1214C55.1729 52.2766 55.6028 52.4736 56.0267 52.7125ZM52.1759 45.9602L52.8147 50.4139C52.2893 50.3602 51.7699 50.3662 51.2565 50.4139L52.1759 45.9602ZM43.2744 48.6826L47.5252 51.7154C47.0416 52.0378 46.6177 52.396 46.2535 52.7841L43.2744 48.6826ZM44.0804 56.9333L40.0565 54.3483L44.6416 55.2677C44.3908 55.8528 44.2058 56.4199 44.0804 56.9333ZM29.0476 18.5751C29.5311 17.8766 30.2416 17.4826 30.9998 17.0707C31.2028 16.9572 31.4058 16.8498 31.6028 16.7304C32.4386 16.2408 33.0714 15.6438 33.4834 14.9692C35.4834 19.8289 34.1699 21.9722 33.6505 22.8199C33.6386 22.8378 33.6326 22.8438 33.6267 22.8617H29.1073C28.2953 21.7632 28.2535 19.7214 29.0476 18.5751ZM26.0864 24.2408C26.0864 24.1632 26.1162 24.1154 26.1401 24.0975C26.158 24.0796 26.1938 24.0557 26.2356 24.0557H37.364C37.4476 24.0557 37.5132 24.1393 37.5132 24.2408V26.0557H26.0326C26.0386 25.8886 26.0446 25.7095 26.0565 25.5542C26.0744 25.1244 26.0983 24.6468 26.0864 24.2408ZM27.8953 29.1901C27.5789 28.7901 26.9998 27.9244 26.558 27.2498H36.8386L35.2267 29.1901C35.1968 29.2259 35.161 29.2438 35.1192 29.2438H34.361H28.9998H28.0147C27.961 29.2438 27.9252 29.2259 27.8953 29.1901ZM29.6505 30.4378H33.7281L33.6386 32.1154C33.6207 32.1811 33.6207 32.2528 33.6267 32.3184L32.9102 45.799C32.8983 46.0378 32.7968 46.2587 32.6237 46.4259C32.4505 46.5871 32.2237 46.6826 31.9849 46.6826C31.5013 46.6826 31.1013 46.3184 31.0535 45.8348L30.7013 41.9662C31.4177 41.7334 31.8953 41.0229 31.8117 40.2528C31.7938 40.0737 31.7401 39.9005 31.6684 39.7393C32.3192 39.4229 32.7311 38.7184 32.6476 37.9602C32.5998 37.5184 32.3908 37.1304 32.0804 36.8498C32.3311 36.4975 32.4386 36.0737 32.3908 35.6438C32.3431 35.2139 32.1461 34.8199 31.8237 34.5334C32.0625 34.1931 32.1819 33.7692 32.1341 33.3274C32.0267 32.3602 31.161 31.6677 30.1878 31.7692L29.7699 31.8169L29.6505 30.4378ZM28.361 41.0587C28.1222 41.0826 27.9192 40.9154 27.8953 40.6826C27.8714 40.4498 28.0386 40.2408 28.2655 40.2169C28.5938 40.1811 28.8326 39.8886 28.7908 39.5602C28.749 39.2319 28.4565 38.9931 28.1341 39.0348L28.0028 39.0468C27.6923 39.0826 27.4117 38.8557 27.3759 38.5453C27.3401 38.2348 27.567 37.9542 27.8774 37.9184C28.1819 37.8826 28.4087 37.6259 28.4087 37.3274C28.4087 37.3035 28.4087 37.2856 28.4028 37.2617C28.367 36.9334 28.0804 36.7005 27.7461 36.7363C27.5968 36.7542 27.4476 36.7125 27.3281 36.6169C27.2087 36.5214 27.1371 36.3841 27.1192 36.2348C27.1013 36.0856 27.1431 35.9363 27.2386 35.8169C27.3341 35.6975 27.4714 35.6259 27.6207 35.608C27.9252 35.5722 28.152 35.3154 28.152 35.0169C28.152 34.9931 28.152 34.9751 28.1461 34.9513C28.1102 34.6229 27.8177 34.3841 27.4893 34.4259C27.3341 34.4438 27.1908 34.402 27.0714 34.3065C26.952 34.211 26.8804 34.0737 26.8625 33.9244C26.8267 33.6139 27.0535 33.3334 27.364 33.2975L29.167 33.1005C29.2087 33.1065 29.2446 33.1184 29.2923 33.1125C29.3461 33.1065 29.3878 33.0886 29.4356 33.0707L30.3192 32.9751C30.6296 32.9453 30.9102 33.1662 30.9461 33.4766C30.9819 33.7871 30.755 34.0677 30.4446 34.1035L28.9461 34.211C28.6177 34.2348 28.3729 34.5214 28.3968 34.8498C28.4207 35.1662 28.6834 35.405 28.9938 35.405H29.0356L30.552 35.2975C30.558 35.2975 30.558 35.2975 30.564 35.2916H30.5759C30.7252 35.2736 30.8744 35.3154 30.9938 35.411C31.1132 35.5065 31.1849 35.6438 31.2028 35.7931C31.2207 35.9423 31.1789 36.0916 31.0834 36.211C30.9878 36.3304 30.8505 36.402 30.7013 36.4199L29.1789 36.5871C28.8505 36.6229 28.6117 36.9154 28.6476 37.2438C28.6834 37.5483 28.9401 37.7751 29.2386 37.7751C29.2625 37.7751 29.2804 37.7751 29.3043 37.7692L30.8267 37.602C31.1371 37.5662 31.4237 37.7931 31.4535 38.1035C31.4893 38.4139 31.2625 38.6945 30.952 38.7304L30.0267 38.8319C30.0267 38.8319 30.0267 38.8319 30.0207 38.8319C29.6923 38.8677 29.4535 39.1602 29.4953 39.4886C29.5311 39.8169 29.8296 40.0557 30.152 40.0139C30.2655 40.002 30.3729 40.0319 30.4625 40.1035C30.552 40.1751 30.6058 40.2766 30.6177 40.3901C30.6416 40.6229 30.4744 40.8319 30.2416 40.8557L28.361 41.0587ZM30.9819 47.6139C31.2804 47.7751 31.6207 47.8766 31.9908 47.8766C32.5401 47.8766 33.0595 47.6677 33.4535 47.2916C33.8535 46.9154 34.0864 46.408 34.1102 45.8587L34.7132 34.4438C35.0237 35.208 35.2923 36.1453 35.2983 37.1304C35.3162 39.7453 35.2983 42.7483 35.2983 42.7542C35.2983 42.8139 35.3043 42.8736 35.3222 42.9334L38.0684 51.799L38.6296 59.5065C36.9699 63.8229 34.2356 69.196 32.5878 69.2199C32.4147 69.2199 32.2774 69.1662 32.1699 69.0229C31.2804 67.8468 32.1938 63.202 32.9819 60.5513C32.9819 60.5453 32.9819 60.5333 32.9879 60.5274C32.9938 60.5095 32.9938 60.4856 32.9938 60.4677C32.9998 60.4139 33.0058 60.3602 32.9938 60.3125C32.9938 60.3005 32.9938 60.2886 32.9938 60.2766C32.9819 60.205 31.7043 53.2796 31.1849 49.3692C31.0953 48.7005 31.0296 48.1214 30.9819 47.6139ZM32.1102 75.7632C31.7102 75.608 31.0058 75.4766 29.7938 75.2557C28.1401 74.9572 28.1043 74.0139 28.2296 70.796C28.2595 70.0199 28.2953 69.1363 28.2953 68.1632C28.2953 65.4348 30.0446 63.2617 31.3401 62.014C30.767 64.408 30.0864 68.2528 31.2028 69.7334C31.5431 70.1811 32.0087 70.4199 32.5878 70.408C35.3401 70.3662 38.3431 63.5065 39.6087 60.2468L41.155 63.5901C41.352 64.0139 41.352 64.4975 41.155 64.9154L40.8028 65.6856C40.7849 65.7274 40.7789 65.7692 40.767 65.811C40.767 65.8169 40.761 65.8289 40.755 65.8348C40.755 65.9304 39.1431 74.7901 32.1102 75.7632ZM43.2147 67.1005L42.0625 65.8289L42.2535 65.4169C42.5878 64.6766 42.5879 63.8289 42.2476 63.0945L40.1043 58.4557C40.0267 58.2945 39.8893 58.1811 39.7222 58.1334L39.5252 55.4229L43.8416 58.205C43.7878 58.6229 43.7819 58.8796 43.7819 58.8916V66.6528L43.2147 67.1005Z" fill="black"/>
<path d="M47.3462 29.799C47.6745 29.799 47.9432 29.5303 47.9432 29.202C47.9432 28.8736 47.6745 28.6049 47.3462 28.6049C45.5193 28.6049 44.0327 27.1184 44.0327 25.2915C44.0327 23.4646 45.5193 21.9781 47.3521 21.9781C47.3641 21.9781 47.4178 21.984 47.4238 21.984C47.7342 21.984 47.9671 21.787 48.0208 21.5005C48.4208 19.4527 50.2238 17.9661 52.3133 17.9661C54.5342 17.9661 56.4029 19.6318 56.6596 21.8348C56.6835 22.0258 56.7969 22.193 56.9641 22.2885C57.1312 22.384 57.3402 22.39 57.5133 22.3064C57.9671 22.0915 58.4447 21.9781 58.9402 21.9781C60.3969 21.9781 61.6686 22.9094 62.1044 24.3005C62.1999 24.6049 62.5163 24.7781 62.8268 24.7005C63.0357 24.6467 63.2029 24.6229 63.3641 24.6229C64.5581 24.6229 65.5253 25.596 65.5253 26.784C65.5253 27.9781 64.5521 28.9452 63.3641 28.9452C63.0357 28.9452 62.7671 29.2139 62.7671 29.5423C62.7671 29.8706 63.0357 30.1393 63.3641 30.1393C65.2148 30.1393 66.7193 28.6348 66.7193 26.784C66.7193 24.9333 65.2148 23.4288 63.3641 23.4288C63.2626 23.4288 63.1611 23.4348 63.0536 23.4467C62.3372 21.8348 60.7432 20.79 58.9402 20.79C58.5223 20.79 58.1163 20.8497 57.7163 20.9632C57.0954 18.5333 54.8984 16.7781 52.3253 16.7781C49.8297 16.7781 47.6506 18.4437 46.976 20.8079C44.6656 20.999 42.8506 22.9393 42.8506 25.2975C42.8387 27.7811 44.8566 29.799 47.3462 29.799Z" fill="black"/>
<path d="M60.8092 32.8318C60.5525 32.8318 60.3017 32.8616 60.057 32.9153C59.5435 31.1959 57.9495 29.978 56.1047 29.978C54.2898 29.978 52.7077 31.1601 52.1704 32.8556C50.4988 33.0527 49.1973 34.4795 49.1973 36.2109C49.1973 36.5392 49.4659 36.8079 49.7943 36.8079C50.1226 36.8079 50.3913 36.5392 50.3913 36.2109C50.3913 35.0049 51.3704 34.0258 52.5585 34.0258C52.5644 34.0258 52.6182 34.0318 52.6241 34.0318C52.9286 34.0437 53.1734 33.8347 53.2271 33.5482C53.4958 32.175 54.7077 31.1721 56.1107 31.1721C57.6032 31.1721 58.857 32.2885 59.0241 33.7691C59.048 33.9601 59.1614 34.1273 59.3286 34.2228C59.4958 34.3183 59.6988 34.3243 59.8779 34.2407C60.1764 34.0974 60.4928 34.0258 60.8152 34.0258C61.7764 34.0258 62.6122 34.6407 62.8988 35.5541C62.9943 35.8706 63.3286 36.0437 63.645 35.9482C63.9614 35.8527 64.1346 35.5124 64.0391 35.2019C63.5913 33.781 62.2958 32.8318 60.8092 32.8318Z" fill="black"/>
<path d="M73.6149 38.8976C71.0835 38.5692 69.6089 40.0498 68.8567 41.5543C68.0985 40.0439 66.6179 38.5692 64.0985 38.8976C63.7701 38.9394 63.5432 39.2379 63.585 39.5663C63.6268 39.8946 63.9313 40.1275 64.2537 40.0797C67.5791 39.6498 68.2418 43.3633 68.2716 43.5245C68.2716 43.5304 68.2776 43.5364 68.2776 43.5483C68.2835 43.5782 68.2955 43.608 68.3074 43.6379C68.3253 43.6797 68.3373 43.7215 68.3612 43.7573C68.3791 43.7812 68.397 43.7991 68.4149 43.823C68.4447 43.8588 68.4746 43.8886 68.5104 43.9125C68.5343 43.9304 68.5582 43.9424 68.582 43.9543C68.6238 43.9782 68.6656 43.9901 68.7134 44.0021C68.7313 44.008 68.7432 44.014 68.7552 44.02C68.785 44.026 68.8149 44.026 68.8447 44.026H68.8507C68.8806 44.026 68.9164 44.026 68.9462 44.02C68.9641 44.02 68.9761 44.008 68.994 44.0021C69.0358 43.9901 69.0776 43.9782 69.1134 43.9543C69.1432 43.9424 69.1671 43.9245 69.197 43.9066C69.2328 43.8827 69.2567 43.8528 69.2865 43.823C69.3104 43.7991 69.3283 43.7752 69.3462 43.7513C69.3701 43.7155 69.382 43.6797 69.394 43.6439C69.4059 43.614 69.4179 43.5842 69.4298 43.5483C69.4298 43.5424 69.4358 43.5364 69.4358 43.5245C69.4597 43.3692 70.1164 39.6558 73.4537 40.0797C73.788 40.1275 74.0806 39.8886 74.1223 39.5663C74.1701 39.2379 73.9432 38.9394 73.6149 38.8976Z" fill="black"/>
<path d="M76.6474 31.5363C75.0772 31.3334 74.0981 32.1214 73.5369 33.0289C72.9698 32.1214 71.9907 31.3334 70.4325 31.5363C70.1041 31.5781 69.8772 31.8766 69.919 32.205C69.9608 32.5334 70.2533 32.7662 70.5877 32.7184C72.5041 32.4677 72.916 34.5334 72.9578 34.7722C72.9578 34.7781 72.9638 34.7841 72.9638 34.796C72.9698 34.8259 72.9817 34.8557 72.9936 34.8856C73.0116 34.9274 73.0235 34.9692 73.0474 35.005C73.0653 35.0289 73.0832 35.0468 73.1011 35.0707C73.131 35.1065 73.1608 35.1363 73.2026 35.1662C73.2265 35.1841 73.2504 35.196 73.2742 35.208C73.316 35.2319 73.3638 35.2498 73.4116 35.2617C73.4235 35.2677 73.4354 35.2737 73.4533 35.2796C73.4832 35.2856 73.513 35.2856 73.5429 35.2856H73.5548C73.5847 35.2856 73.6205 35.2856 73.6504 35.2796C73.6683 35.2737 73.6862 35.2677 73.7041 35.2617C73.7459 35.2498 73.7817 35.2378 73.8175 35.2199C73.8474 35.202 73.8772 35.1901 73.9011 35.1722C73.931 35.1483 73.9608 35.1244 73.9847 35.0945C74.0086 35.0707 74.0325 35.0468 74.0504 35.0169C74.0742 34.9811 74.0862 34.9453 74.0981 34.9095C74.1101 34.8796 74.128 34.8498 74.1339 34.814C74.1339 34.808 74.1399 34.802 74.1399 34.796C74.1817 34.5572 74.5877 32.4916 76.5041 32.7423C76.8325 32.7901 77.131 32.5513 77.1727 32.2289C77.2026 31.8766 76.9757 31.5781 76.6474 31.5363Z" fill="black"/>
</svg>
