<svg width="16" height="16" viewBox="0 0 16 16" fill="none" xmlns="http://www.w3.org/2000/svg">
<path d="M13.2502 6.68514L11.3227 7.16514L8.91521 4.16514C8.80979 4.03375 8.67622 3.9277 8.52434 3.85484C8.37246 3.78197 8.20616 3.74414 8.03771 3.74414C7.86926 3.74414 7.70295 3.78197 7.55107 3.85484C7.3992 3.9277 7.26562 4.03375 7.16021 4.16514L4.75271 7.16514L2.78771 6.68514C2.59939 6.64007 2.40266 6.64403 2.21631 6.69666C2.02997 6.74928 1.86022 6.84881 1.7233 6.98573C1.58638 7.12266 1.48685 7.2924 1.43423 7.47874C1.3816 7.66509 1.37764 7.86182 1.42271 8.05014L2.75021 12.7151C2.79557 12.8774 2.89423 13.0196 3.03029 13.1189C3.16634 13.2182 3.33187 13.2689 3.50021 13.2626H12.5002C12.6685 13.2689 12.8341 13.2182 12.9701 13.1189C13.1062 13.0196 13.2048 12.8774 13.2502 12.7151L14.5852 8.05014C14.6283 7.86481 14.624 7.67162 14.5727 7.48839C14.5214 7.30516 14.4248 7.13781 14.2918 7.00178C14.1587 6.86576 13.9936 6.76544 13.8115 6.7101C13.6295 6.65476 13.4364 6.64617 13.2502 6.68514Z" fill="#EFA83C"/>
<path d="M1.0625 5.875C1.58027 5.875 2 5.45527 2 4.9375C2 4.41973 1.58027 4 1.0625 4C0.544733 4 0.125 4.41973 0.125 4.9375C0.125 5.45527 0.544733 5.875 1.0625 5.875Z" fill="#EFA83C"/>
<path d="M14.9375 5.875C15.4553 5.875 15.875 5.45527 15.875 4.9375C15.875 4.41973 15.4553 4 14.9375 4C14.4197 4 14 4.41973 14 4.9375C14 5.45527 14.4197 5.875 14.9375 5.875Z" fill="#EFA83C"/>
<path d="M8 2.6875C8.51777 2.6875 8.9375 2.26777 8.9375 1.75C8.9375 1.23223 8.51777 0.8125 8 0.8125C7.48223 0.8125 7.0625 1.23223 7.0625 1.75C7.0625 2.26777 7.48223 2.6875 8 2.6875Z" fill="#EFA83C"/>
<path d="M12.5 16H3.5C3.30109 16 3.11032 15.921 2.96967 15.7803C2.82902 15.6397 2.75 15.4489 2.75 15.25C2.75 15.0511 2.82902 14.8603 2.96967 14.7197C3.11032 14.579 3.30109 14.5 3.5 14.5H12.5C12.6989 14.5 12.8897 14.579 13.0303 14.7197C13.171 14.8603 13.25 15.0511 13.25 15.25C13.25 15.4489 13.171 15.6397 13.0303 15.7803C12.8897 15.921 12.6989 16 12.5 16Z" fill="#EFA83C"/>
</svg>
