<svg width="102" height="102" viewBox="0 0 102 102" fill="none" xmlns="http://www.w3.org/2000/svg">
<rect x="1" y="1.00488" width="100" height="100" rx="10" fill="#FEFCFC"/>
<rect x="0.5" y="0.504883" width="101" height="101" rx="10.5" stroke="#D0D0D0" stroke-opacity="0.38"/>
<path d="M19.7568 81.4211H82.2433V83.259H19.7568V81.4211Z" fill="black"/>
<path d="M63.5981 83.259H43.6484C43.4047 83.259 43.171 83.1621 42.9986 82.9898C42.8263 82.8175 42.7295 82.5838 42.7295 82.34V43.7455H44.5673V81.4211H62.8648C66.7353 64.0637 64.6439 49.8535 56.8 40.2885C53.543 36.3011 49.3368 33.1954 44.5673 31.2564V40.0698H42.7295V29.9617C42.7295 29.8201 42.7622 29.6805 42.825 29.5537C42.8878 29.4269 42.9791 29.3163 43.0917 29.2305C43.2043 29.1448 43.3352 29.0862 43.4742 29.0594C43.6131 29.0326 43.7564 29.0382 43.8928 29.0758C44.2025 29.1613 74.7685 38.1309 64.4932 82.5468C64.4464 82.7492 64.3325 82.9298 64.17 83.0591C64.0074 83.1884 63.8059 83.2589 63.5981 83.259Z" fill="black"/>
<path d="M59.8693 78.6644H48.2431C47.9994 78.6644 47.7657 78.5676 47.5934 78.3952C47.421 78.2229 47.3242 77.9892 47.3242 77.7455V37.3277C47.3243 37.1604 47.3701 36.9962 47.4566 36.853C47.5431 36.7097 47.6671 36.5928 47.8152 36.5149C47.9633 36.437 48.1299 36.401 48.297 36.4108C48.4641 36.4206 48.6253 36.4758 48.7632 36.5705C55.3069 41.0604 65.5684 52.4026 60.7726 77.9155C60.733 78.126 60.621 78.3161 60.456 78.4529C60.2911 78.5896 60.0836 78.6644 59.8693 78.6644ZM49.1621 76.8265H59.1029C63.0488 54.6806 55.1994 43.9586 49.1621 39.1509V76.8265Z" fill="black"/>
<path d="M42.7295 19.8535H44.5673V29.9616H42.7295V19.8535Z" fill="black"/>
<path d="M48.2432 44.4897H55.9621V46.3276H48.2432V44.4897Z" fill="black"/>
<path d="M48.2432 52.5762H59.5275V54.414H48.2432V52.5762Z" fill="black"/>
<path d="M48.2432 60.6626H60.9518V62.5004H48.2432V60.6626Z" fill="black"/>
<path d="M48.2432 68.74H60.9426V70.5778H48.2432V68.74Z" fill="black"/>
<path d="M44.5671 44.6644H36.2968C36.0531 44.6644 35.8194 44.5676 35.6471 44.3952C35.4747 44.2229 35.3779 43.9892 35.3779 43.7455V40.0698C35.3779 39.8261 35.4747 39.5924 35.6471 39.42C35.8194 39.2477 36.0531 39.1509 36.2968 39.1509H44.5671C44.8108 39.1509 45.0446 39.2477 45.2169 39.42C45.3892 39.5924 45.486 39.8261 45.486 40.0698V43.7455C45.486 43.9892 45.3892 44.2229 45.2169 44.3952C45.0446 44.5676 44.8108 44.6644 44.5671 44.6644ZM37.2158 42.8266H43.6482V40.9887H37.2158V42.8266Z" fill="black"/>
<path d="M43.6483 83.2589H39.9726C39.7289 83.2589 39.4952 83.1621 39.3229 82.9897C39.1505 82.8174 39.0537 82.5837 39.0537 82.34V43.7454H40.8915V81.421H42.7294V43.7454H44.5672V82.34C44.5672 82.5837 44.4704 82.8174 44.2981 82.9897C44.1258 83.1621 43.892 83.2589 43.6483 83.2589Z" fill="black"/>
<path d="M44.5672 40.0698H42.7294V36.4125H40.8915V40.0698H39.0537V35.4936C39.0537 35.2499 39.1505 35.0162 39.3229 34.8439C39.4952 34.6715 39.7289 34.5747 39.9726 34.5747H43.6483C43.892 34.5747 44.1258 34.6715 44.2981 34.8439C44.4704 35.0162 44.5672 35.2499 44.5672 35.4936V40.0698Z" fill="black"/>
<path d="M79.4868 40.0697H66.622C65.6471 40.0697 64.7122 39.6824 64.0229 38.9931C63.3335 38.3038 62.9463 37.3689 62.9463 36.394C62.9463 35.4192 63.3335 34.4843 64.0229 33.7949C64.7122 33.1056 65.6471 32.7183 66.622 32.7183H67.5409C67.5409 31.2561 68.1218 29.8537 69.1558 28.8197C70.1897 27.7857 71.5921 27.2048 73.0544 27.2048C74.5167 27.2048 75.9191 27.7857 76.953 28.8197C77.987 29.8537 78.5679 31.2561 78.5679 32.7183H79.4868C80.4617 32.7183 81.3966 33.1056 82.0859 33.7949C82.7753 34.4843 83.1625 35.4192 83.1625 36.394C83.1625 37.3689 82.7753 38.3038 82.0859 38.9931C81.3966 39.6824 80.4617 40.0697 79.4868 40.0697ZM66.622 34.5562C66.1345 34.5562 65.6671 34.7498 65.3224 35.0945C64.9778 35.4391 64.7841 35.9066 64.7841 36.394C64.7841 36.8815 64.9778 37.3489 65.3224 37.6936C65.6671 38.0382 66.1345 38.2319 66.622 38.2319H79.4868C79.9743 38.2319 80.4417 38.0382 80.7864 37.6936C81.131 37.3489 81.3247 36.8815 81.3247 36.394C81.3247 35.9066 81.131 35.4391 80.7864 35.0945C80.4417 34.7498 79.9743 34.5562 79.4868 34.5562H77.5571C77.4208 34.5562 77.2862 34.5259 77.1631 34.4675C77.04 34.4091 76.9314 34.3241 76.8452 34.2185C76.759 34.113 76.6973 33.9896 76.6647 33.8572C76.6321 33.7249 76.6293 33.587 76.6566 33.4535C76.7657 32.9194 76.7547 32.3677 76.6243 31.8384C76.4939 31.3091 76.2475 30.8154 75.9028 30.3931C75.558 29.9709 75.1237 29.6305 74.6312 29.3968C74.1387 29.1631 73.6004 29.0418 73.0553 29.0418C72.5102 29.0418 71.9719 29.1631 71.4794 29.3968C70.9869 29.6305 70.5526 29.9709 70.2079 30.3931C69.8632 30.8154 69.6167 31.3091 69.4863 31.8384C69.3559 32.3677 69.3449 32.9194 69.4541 33.4535C69.4813 33.587 69.4785 33.7249 69.4459 33.8572C69.4133 33.9896 69.3517 34.113 69.2655 34.2185C69.1793 34.3241 69.0707 34.4091 68.9475 34.4675C68.8244 34.5259 68.6898 34.5562 68.5535 34.5562H66.622Z" fill="black"/>
<path d="M35.3784 31.7994H22.5136C21.5387 31.7994 20.6038 31.4122 19.9145 30.7229C19.2251 30.0335 18.8379 29.0986 18.8379 28.1238C18.8379 27.1489 19.2251 26.214 19.9145 25.5247C20.6038 24.8353 21.5387 24.4481 22.5136 24.4481H23.4325C23.4325 22.9858 24.0134 21.5834 25.0474 20.5494C26.0813 19.5155 27.4837 18.9346 28.946 18.9346C30.4083 18.9346 31.8107 19.5155 32.8446 20.5494C33.8786 21.5834 34.4595 22.9858 34.4595 24.4481H35.3784C36.3533 24.4481 37.2882 24.8353 37.9775 25.5247C38.6669 26.214 39.0541 27.1489 39.0541 28.1238C39.0541 29.0986 38.6669 30.0335 37.9775 30.7229C37.2882 31.4122 36.3533 31.7994 35.3784 31.7994ZM22.5136 26.2859C22.0261 26.2859 21.5587 26.4796 21.214 26.8242C20.8694 27.1689 20.6757 27.6363 20.6757 28.1238C20.6757 28.6112 20.8694 29.0786 21.214 29.4233C21.5587 29.768 22.0261 29.9616 22.5136 29.9616H35.3784C35.8659 29.9616 36.3333 29.768 36.678 29.4233C37.0226 29.0786 37.2163 28.6112 37.2163 28.1238C37.2163 27.6363 37.0226 27.1689 36.678 26.8242C36.3333 26.4796 35.8659 26.2859 35.3784 26.2859H33.4487C33.3124 26.286 33.1778 26.2557 33.0547 26.1973C32.9316 26.1389 32.823 26.0538 32.7368 25.9483C32.6506 25.8427 32.5889 25.7193 32.5563 25.587C32.5237 25.4547 32.5209 25.3167 32.5482 25.1832C32.6573 24.6491 32.6463 24.0975 32.5159 23.5682C32.3855 23.0389 32.1391 22.5452 31.7944 22.1229C31.4496 21.7006 31.0153 21.3603 30.5228 21.1265C30.0303 20.8928 29.492 20.7716 28.9469 20.7716C28.4018 20.7716 27.8635 20.8928 27.371 21.1265C26.8785 21.3603 26.4442 21.7006 26.0995 22.1229C25.7548 22.5452 25.5083 23.0389 25.3779 23.5682C25.2475 24.0975 25.2365 24.6491 25.3457 25.1832C25.3729 25.3167 25.3701 25.4547 25.3375 25.587C25.3049 25.7193 25.2433 25.8427 25.1571 25.9483C25.0709 26.0538 24.9623 26.1389 24.8391 26.1973C24.716 26.2557 24.5814 26.286 24.4451 26.2859H22.5136Z" fill="black"/>
</svg>
