<svg width="102" height="102" viewBox="0 0 102 102" fill="none" xmlns="http://www.w3.org/2000/svg">
<rect x="1" y="1.00488" width="100" height="100" rx="10" fill="#FEFCFC"/>
<rect x="0.5" y="0.504883" width="101" height="101" rx="10.5" stroke="#D0D0D0" stroke-opacity="0.38"/>
<path d="M55.6875 27.5674C55.6875 27.0518 55.2656 26.6299 54.75 26.6299C54.2344 26.6299 53.8125 27.0518 53.8125 27.5674C53.8125 29.1143 52.5469 30.3799 51 30.3799C49.4531 30.3799 48.1875 29.1143 48.1875 27.5674C48.1875 26.0205 49.4531 24.7549 51 24.7549C51.5156 24.7549 51.9375 24.333 51.9375 23.8174C51.9375 23.3018 51.5156 22.8799 51 22.8799C48.4125 22.8799 46.3125 24.9799 46.3125 27.5674C46.3125 29.8268 47.925 31.7205 50.0625 32.1611V35.0674C50.0625 35.583 50.4844 36.0049 51 36.0049C51.5156 36.0049 51.9375 35.583 51.9375 35.0674V32.1611C54.075 31.7299 55.6875 29.8361 55.6875 27.5674Z" fill="black"/>
<path d="M51 34.1299C44.2781 34.1299 38.8125 39.5955 38.8125 46.3174V50.0674C38.8125 50.583 39.2344 51.0049 39.75 51.0049H62.25C62.7656 51.0049 63.1875 50.583 63.1875 50.0674V46.3174C63.1875 39.5955 57.7219 34.1299 51 34.1299ZM51 36.0049C56.3719 36.0049 60.7969 40.1299 61.275 45.3799H40.7344C41.2125 40.1299 45.6375 36.0049 51.0094 36.0049H51ZM61.3125 49.1299H40.6875V47.2549H61.3125V49.1299Z" fill="black"/>
<path d="M73.5 31.4111V29.4424C73.5 28.9268 73.0781 28.5049 72.5625 28.5049C72.0469 28.5049 71.625 28.9268 71.625 29.4424V31.4111C69.4875 31.8424 67.875 33.7361 67.875 36.0049V37.8799C67.875 38.3955 68.2969 38.8174 68.8125 38.8174H76.3125C76.8281 38.8174 77.25 38.3955 77.25 37.8799V36.0049C77.25 33.7455 75.6375 31.8518 73.5 31.4111ZM75.375 36.9424H69.75V36.0049C69.75 34.458 71.0156 33.1924 72.5625 33.1924C74.1094 33.1924 75.375 34.458 75.375 36.0049V36.9424Z" fill="black"/>
<path d="M30.375 31.4111V29.4424C30.375 28.9268 29.9531 28.5049 29.4375 28.5049C28.9219 28.5049 28.5 28.9268 28.5 29.4424V31.4111C26.3625 31.8424 24.75 33.7361 24.75 36.0049V37.8799C24.75 38.3955 25.1719 38.8174 25.6875 38.8174H33.1875C33.7031 38.8174 34.125 38.3955 34.125 37.8799V36.0049C34.125 33.7455 32.5125 31.8518 30.375 31.4111ZM32.25 36.9424H26.625V36.0049C26.625 34.458 27.8906 33.1924 29.4375 33.1924C30.9844 33.1924 32.25 34.458 32.25 36.0049V36.9424Z" fill="black"/>
<path d="M65.0625 79.1299H36.9375C36.4219 79.1299 36 78.708 36 78.1924V53.8174C36 53.3018 36.4219 52.8799 36.9375 52.8799H65.0625C65.5781 52.8799 66 53.3018 66 53.8174V78.1924C66 78.708 65.5781 79.1299 65.0625 79.1299ZM37.875 77.2549H64.125V54.7549H37.875V77.2549Z" fill="black"/>
<path d="M65.0625 54.7549H36.9375C36.4219 54.7549 36 54.333 36 53.8174V50.0674C36 49.5518 36.4219 49.1299 36.9375 49.1299H65.0625C65.5781 49.1299 66 49.5518 66 50.0674V53.8174C66 54.333 65.5781 54.7549 65.0625 54.7549ZM37.875 52.8799H64.125V51.0049H37.875V52.8799Z" fill="black"/>
<path d="M78.1875 79.1299H65.0625C64.5469 79.1299 64.125 78.708 64.125 78.1924V65.0674C64.125 64.5518 64.5469 64.1299 65.0625 64.1299H78.1875C78.7031 64.1299 79.125 64.5518 79.125 65.0674V78.1924C79.125 78.708 78.7031 79.1299 78.1875 79.1299ZM66 77.2549H77.25V66.0049H66V77.2549Z" fill="black"/>
<path d="M78.1875 66.0049H65.0625C64.5469 66.0049 64.125 65.583 64.125 65.0674V61.3174C64.125 60.8018 64.5469 60.3799 65.0625 60.3799H78.1875C78.7031 60.3799 79.125 60.8018 79.125 61.3174V65.0674C79.125 65.583 78.7031 66.0049 78.1875 66.0049ZM66 64.1299H77.25V62.2549H66V64.1299Z" fill="black"/>
<path d="M36.9375 66.0049H23.8125C23.2969 66.0049 22.875 65.583 22.875 65.0674V61.3174C22.875 60.8018 23.2969 60.3799 23.8125 60.3799H36.9375C37.4531 60.3799 37.875 60.8018 37.875 61.3174V65.0674C37.875 65.583 37.4531 66.0049 36.9375 66.0049ZM24.75 64.1299H36V62.2549H24.75V64.1299Z" fill="black"/>
<path d="M78.1875 36.9424H66.9375C66.4219 36.9424 66 37.3643 66 37.8799C66 38.3955 66.4219 38.8174 66.9375 38.8174H67.875V57.5674C67.875 58.083 68.2969 58.5049 68.8125 58.5049C69.3281 58.5049 69.75 58.083 69.75 57.5674V38.8174H75.375V57.5674C75.375 58.083 75.7969 58.5049 76.3125 58.5049C76.8281 58.5049 77.25 58.083 77.25 57.5674V38.8174H78.1875C78.7031 38.8174 79.125 38.3955 79.125 37.8799C79.125 37.3643 78.7031 36.9424 78.1875 36.9424Z" fill="black"/>
<path d="M73.5 44.4424H71.625C71.1094 44.4424 70.6875 44.0205 70.6875 43.5049C70.6875 42.9893 71.1094 42.5674 71.625 42.5674H73.5C74.0156 42.5674 74.4375 42.9893 74.4375 43.5049C74.4375 44.0205 74.0156 44.4424 73.5 44.4424Z" fill="black"/>
<path d="M73.5 50.0674H71.625C71.1094 50.0674 70.6875 49.6455 70.6875 49.1299C70.6875 48.6143 71.1094 48.1924 71.625 48.1924H73.5C74.0156 48.1924 74.4375 48.6143 74.4375 49.1299C74.4375 49.6455 74.0156 50.0674 73.5 50.0674Z" fill="black"/>
<path d="M36.9375 79.1299H23.8125C23.2969 79.1299 22.875 78.708 22.875 78.1924V65.0674C22.875 64.5518 23.2969 64.1299 23.8125 64.1299H36.9375C37.4531 64.1299 37.875 64.5518 37.875 65.0674V78.1924C37.875 78.708 37.4531 79.1299 36.9375 79.1299ZM24.75 77.2549H36V66.0049H24.75V77.2549Z" fill="black"/>
<path d="M35.0625 36.9424H23.8125C23.2969 36.9424 22.875 37.3643 22.875 37.8799C22.875 38.3955 23.2969 38.8174 23.8125 38.8174H24.75V57.5674C24.75 58.083 25.1719 58.5049 25.6875 58.5049C26.2031 58.5049 26.625 58.083 26.625 57.5674V38.8174H32.25V57.5674C32.25 58.083 32.6719 58.5049 33.1875 58.5049C33.7031 58.5049 34.125 58.083 34.125 57.5674V38.8174H35.0625C35.5781 38.8174 36 38.3955 36 37.8799C36 37.3643 35.5781 36.9424 35.0625 36.9424Z" fill="black"/>
<path d="M30.375 44.4424H28.5C27.9844 44.4424 27.5625 44.0205 27.5625 43.5049C27.5625 42.9893 27.9844 42.5674 28.5 42.5674H30.375C30.8906 42.5674 31.3125 42.9893 31.3125 43.5049C31.3125 44.0205 30.8906 44.4424 30.375 44.4424Z" fill="black"/>
<path d="M30.375 50.0674H28.5C27.9844 50.0674 27.5625 49.6455 27.5625 49.1299C27.5625 48.6143 27.9844 48.1924 28.5 48.1924H30.375C30.8906 48.1924 31.3125 48.6143 31.3125 49.1299C31.3125 49.6455 30.8906 50.0674 30.375 50.0674Z" fill="black"/>
<path d="M57.5625 75.38C57.0469 75.38 56.625 74.9581 56.625 74.4425V70.0175C56.625 66.5019 54.3281 63.3706 51 62.2925C47.6719 63.3612 45.375 66.5019 45.375 70.0175V74.4425C45.375 74.9581 44.9531 75.38 44.4375 75.38C43.9219 75.38 43.5 74.9581 43.5 74.4425V70.0175C43.5 65.5831 46.4812 61.6362 50.7469 60.4175C50.9156 60.3706 51.0937 60.3706 51.2625 60.4175C55.5281 61.6362 58.5094 65.5831 58.5094 70.0175V74.4425C58.5094 74.9581 58.0875 75.38 57.5719 75.38H57.5625Z" fill="black"/>
<path d="M74.4375 75.3798C73.9219 75.3798 73.5 74.958 73.5 74.4423V74.0767C73.5 72.4923 72.8062 71.0111 71.625 69.9986C70.4437 71.0111 69.75 72.4923 69.75 74.0767V74.4423C69.75 74.958 69.3281 75.3798 68.8125 75.3798C68.2969 75.3798 67.875 74.958 67.875 74.4423V74.0767C67.875 71.6486 69.0844 69.3892 71.1094 68.0392C71.4281 67.833 71.8313 67.833 72.15 68.0392C74.175 69.3892 75.3844 71.6392 75.3844 74.0767V74.4423C75.3844 74.958 74.9625 75.3798 74.4469 75.3798H74.4375Z" fill="black"/>
<path d="M33.1875 75.38C32.6719 75.38 32.25 74.9581 32.25 74.4425V74.0769C32.25 73.1862 32.025 72.3144 31.6125 71.5456C31.2844 70.9362 30.8719 70.4206 30.375 69.9987C29.1937 71.0112 28.5 72.5019 28.5 74.0862V74.4519C28.5 74.9675 28.0781 75.3894 27.5625 75.3894C27.0469 75.3894 26.625 74.9675 26.625 74.4519V74.0862C26.625 71.6581 27.8344 69.3987 29.85 68.0487C30.1594 67.8425 30.5719 67.8425 30.8906 68.0487C31.8656 68.6956 32.6906 69.605 33.2625 70.6644C33.825 71.705 34.125 72.8862 34.125 74.0862V74.4519C34.125 74.9675 33.7031 75.3894 33.1875 75.3894V75.38Z" fill="black"/>
</svg>
